<svg width="1074" height="265" viewBox="0 0 1074 265" fill="none" xmlns="http://www.w3.org/2000/svg">
<g clip-path="url(#clip0)">
<path d="M24.1859 228.57C13.5318 228.57 4.8645 220.951 4.8645 211.586C4.8645 202.22 13.5318 194.601 24.1859 194.601C25.6451 194.6 27.1004 194.746 28.5283 195.034V151.915C28.5366 150.529 29.0359 149.186 29.9443 148.109C30.8526 147.031 32.1158 146.283 33.526 145.987L61.0644 140.286C63.4925 139.777 66.0079 139.793 68.429 140.331C70.8501 140.87 73.1167 141.918 75.0651 143.399C77.0136 144.881 78.5953 146.76 79.6964 148.9C80.7974 151.04 81.3902 153.389 81.4321 155.776C81.4382 156.194 81.2952 156.601 81.0269 156.93C80.7586 157.259 80.3811 157.49 79.9572 157.585L43.5075 165.717V200.657C43.5075 201.821 43.5507 203.004 43.5965 204.257C43.7668 208.932 43.9432 213.765 41.8944 218.153C38.9849 224.384 31.8681 228.57 24.1859 228.57V228.57ZM24.1859 198.263C15.6342 198.263 8.67678 204.24 8.67678 211.586C8.67678 218.931 15.6342 224.908 24.1859 224.908C30.392 224.908 36.1107 221.591 38.4161 216.654C40.1022 213.043 39.9415 208.641 39.7865 204.385C39.7415 203.155 39.695 201.884 39.695 200.656V164.262C39.6951 163.849 39.8409 163.447 40.1087 163.124C40.3766 162.8 40.7507 162.573 41.1701 162.479L77.5103 154.371C77.0729 151.191 75.3649 148.299 72.7475 146.308C71.2368 145.15 69.4764 144.33 67.5943 143.907C65.7122 143.485 63.7558 143.47 61.8672 143.865L61.4657 142.075L61.8672 143.865L34.3291 149.566C33.7692 149.683 33.2672 149.979 32.9058 150.406C32.5444 150.833 32.3451 151.365 32.3406 151.915V197.441C32.3406 197.734 32.2678 198.022 32.1283 198.281C31.9888 198.541 31.7866 198.765 31.5386 198.934C31.2906 199.103 31.004 199.213 30.7028 199.254C30.4016 199.296 30.0945 199.267 29.8072 199.171C27.9998 198.567 26.0994 198.26 24.1859 198.263V198.263Z" fill="#272A33"/>
<path d="M55.2036 264.916C44.5496 264.916 35.882 257.297 35.882 247.932C35.882 238.567 44.5493 230.947 55.2034 230.947C56.6626 230.947 58.1181 231.092 59.546 231.381V184.027C59.5543 182.64 60.0536 181.298 60.9619 180.22C61.8702 179.142 63.1333 178.394 64.5434 178.098L118.18 166.994C119.025 166.818 119.901 166.825 120.743 167.016C121.585 167.207 122.372 167.576 123.046 168.097C123.72 168.618 124.265 169.277 124.639 170.026C125.014 170.775 125.21 171.595 125.212 172.426L125.211 218.641C125.21 224.805 125.211 230.97 125.212 237.134C125.212 237.853 125.224 238.581 125.237 239.284C125.314 243.73 125.394 248.327 122.352 252.739C120.534 255.331 118.084 257.457 115.214 258.93C112.345 260.403 109.144 261.179 105.89 261.19H105.89C95.2359 261.19 86.5685 253.571 86.5685 244.206C86.5685 234.84 95.2361 227.221 105.89 227.221C107.349 227.221 108.805 227.366 110.233 227.655V189.862L74.525 197.829V237.003C74.525 238.166 74.5682 239.35 74.614 240.603C74.7845 245.278 74.9609 250.112 72.9119 254.499C70.0024 260.73 62.8856 264.916 55.2036 264.916V264.916ZM55.2034 234.61C46.6516 234.61 39.6942 240.586 39.6942 247.932C39.6942 255.278 46.6516 261.254 55.2036 261.254C61.4095 261.254 67.1282 257.937 69.4336 253C71.1199 249.389 70.9592 244.988 70.8042 240.731C70.7592 239.501 70.7127 238.23 70.7127 237.003V197.359C70.7108 196.664 70.9552 195.989 71.4057 195.445C71.8563 194.901 72.4861 194.52 73.1917 194.366L110.112 186.129C110.582 186.023 111.071 186.021 111.541 186.122C112.012 186.224 112.453 186.426 112.831 186.713C113.209 187.001 113.514 187.367 113.725 187.784C113.935 188.201 114.044 188.658 114.045 189.122V229.041C114.047 229.44 113.951 229.834 113.766 230.19C113.581 230.547 113.311 230.857 112.979 231.096C112.644 231.336 112.257 231.499 111.846 231.572C111.436 231.645 111.013 231.626 110.612 231.516C109.076 231.095 107.487 230.882 105.89 230.883C97.3382 230.883 90.3808 236.86 90.3808 244.205C90.3808 251.551 97.3382 257.528 105.89 257.528C111.107 257.528 116.322 254.854 119.173 250.718C121.562 247.252 121.498 243.588 121.425 239.345C121.412 238.627 121.4 237.884 121.4 237.135C121.398 230.97 121.397 224.805 121.399 218.64L121.399 172.426C121.399 172.144 121.334 171.865 121.207 171.611C121.08 171.357 120.895 171.133 120.666 170.957C120.433 170.776 120.161 170.648 119.87 170.581C119.578 170.515 119.275 170.512 118.983 170.574L65.3466 181.677C64.7867 181.794 64.2848 182.09 63.9234 182.517C63.562 182.944 63.3627 183.476 63.3583 184.026V232.768C63.36 233.166 63.2645 233.56 63.0793 233.917C62.8942 234.273 62.6246 234.584 62.2922 234.822C61.9579 235.063 61.5703 235.226 61.1597 235.298C60.7491 235.371 60.3266 235.352 59.925 235.242C58.3895 234.821 56.8002 234.608 55.2034 234.609V234.61Z" fill="#272A33"/>
</g>
<g clip-path="url(#clip1)">
<path d="M974.524 228.57C964.602 228.57 956.53 220.951 956.53 211.586C956.53 202.22 964.602 194.601 974.524 194.601C975.883 194.6 977.239 194.746 978.568 195.034V151.915C978.576 150.529 979.041 149.186 979.887 148.109C980.733 147.031 981.909 146.283 983.223 145.987L1008.87 140.286C1011.13 139.777 1013.47 139.793 1015.73 140.331C1017.98 140.87 1020.09 141.918 1021.91 143.399C1023.72 144.881 1025.2 146.76 1026.22 148.9C1027.25 151.04 1027.8 153.389 1027.84 155.776C1027.84 156.194 1027.71 156.601 1027.46 156.93C1027.21 157.259 1026.86 157.49 1026.46 157.585L992.518 165.717V200.657C992.518 201.821 992.559 203.004 992.601 204.257C992.76 208.932 992.924 213.765 991.016 218.153C988.307 224.384 981.679 228.57 974.524 228.57V228.57ZM974.524 198.263C966.56 198.263 960.081 204.24 960.081 211.586C960.081 218.931 966.56 224.908 974.524 224.908C980.304 224.908 985.63 221.591 987.777 216.654C989.347 213.043 989.197 208.641 989.053 204.385C989.011 203.155 988.968 201.884 988.968 200.656V164.262C988.968 163.849 989.104 163.447 989.353 163.124C989.603 162.8 989.951 162.573 990.342 162.479L1024.19 154.371C1023.78 151.191 1022.19 148.299 1019.75 146.308C1018.34 145.15 1016.7 144.33 1014.95 143.907C1013.2 143.485 1011.38 143.47 1009.62 143.865L1009.24 142.075L1009.62 143.865L983.971 149.566C983.449 149.683 982.982 149.979 982.645 150.406C982.309 150.833 982.123 151.365 982.119 151.915V197.441C982.119 197.734 982.051 198.022 981.921 198.281C981.791 198.541 981.603 198.765 981.372 198.934C981.141 199.103 980.874 199.213 980.593 199.254C980.313 199.296 980.027 199.267 979.759 199.171C978.076 198.567 976.306 198.26 974.524 198.263V198.263Z" fill="#272A33"/>
<path d="M1003.41 264.916C993.489 264.916 985.417 257.297 985.417 247.932C985.417 238.567 993.489 230.947 1003.41 230.947C1004.77 230.947 1006.13 231.092 1007.46 231.381V184.027C1007.46 182.64 1007.93 181.298 1008.77 180.22C1009.62 179.142 1010.8 178.394 1012.11 178.098L1062.06 166.994C1062.85 166.818 1063.66 166.825 1064.45 167.016C1065.23 167.207 1065.96 167.576 1066.59 168.097C1067.22 168.618 1067.73 169.277 1068.08 170.026C1068.43 170.775 1068.61 171.595 1068.61 172.426L1068.61 218.641C1068.61 224.805 1068.61 230.97 1068.61 237.134C1068.61 237.853 1068.62 238.581 1068.63 239.284C1068.7 243.73 1068.78 248.327 1065.95 252.739C1064.25 255.331 1061.97 257.457 1059.3 258.93C1056.63 260.403 1053.65 261.179 1050.62 261.19H1050.62C1040.69 261.19 1032.62 253.571 1032.62 244.206C1032.62 234.84 1040.69 227.221 1050.62 227.221C1051.97 227.221 1053.33 227.366 1054.66 227.655V189.862L1021.4 197.829V237.003C1021.4 238.166 1021.45 239.35 1021.49 240.603C1021.65 245.278 1021.81 250.112 1019.9 254.499C1017.19 260.73 1010.57 264.916 1003.41 264.916V264.916ZM1003.41 234.61C995.447 234.61 988.967 240.586 988.967 247.932C988.967 255.278 995.447 261.254 1003.41 261.254C1009.19 261.254 1014.52 257.937 1016.66 253C1018.23 249.389 1018.08 244.988 1017.94 240.731C1017.9 239.501 1017.85 238.23 1017.85 237.003V197.359C1017.85 196.664 1018.08 195.989 1018.5 195.445C1018.92 194.901 1019.51 194.52 1020.16 194.366L1054.55 186.129C1054.98 186.023 1055.44 186.021 1055.88 186.122C1056.32 186.224 1056.73 186.426 1057.08 186.713C1057.43 187.001 1057.72 187.367 1057.91 187.784C1058.11 188.201 1058.21 188.658 1058.21 189.122V229.041C1058.21 229.44 1058.12 229.834 1057.95 230.19C1057.78 230.547 1057.53 230.857 1057.22 231.096C1056.91 231.336 1056.54 231.499 1056.16 231.572C1055.78 231.645 1055.39 231.626 1055.01 231.516C1053.58 231.095 1052.1 230.882 1050.62 230.883C1042.65 230.883 1036.17 236.86 1036.17 244.205C1036.17 251.551 1042.65 257.528 1050.62 257.528C1055.47 257.528 1060.33 254.854 1062.99 250.718C1065.21 247.252 1065.15 243.588 1065.08 239.345C1065.07 238.627 1065.06 237.884 1065.06 237.135C1065.06 230.97 1065.06 224.805 1065.06 218.64L1065.06 172.426C1065.06 172.144 1065 171.865 1064.88 171.611C1064.76 171.357 1064.59 171.133 1064.38 170.957C1064.16 170.776 1063.91 170.648 1063.63 170.581C1063.36 170.515 1063.08 170.512 1062.81 170.574L1012.86 181.677C1012.34 181.794 1011.87 182.09 1011.53 182.517C1011.2 182.944 1011.01 183.476 1011.01 184.026V232.768C1011.01 233.166 1010.92 233.56 1010.75 233.917C1010.57 234.273 1010.32 234.584 1010.01 234.822C1009.7 235.063 1009.34 235.226 1008.96 235.298C1008.58 235.371 1008.18 235.352 1007.81 235.242C1006.38 234.821 1004.9 234.608 1003.41 234.609V234.61Z" fill="#272A33"/>
</g>
<path d="M966.512 130.903C955.798 133.43 945.496 128.537 943.503 119.972C941.509 111.408 948.579 102.417 959.293 99.8891C970.007 97.3617 980.309 102.255 982.302 110.82C984.296 119.384 977.226 128.375 966.512 130.903Z" stroke="black" stroke-width="2" stroke-linecap="round" stroke-linejoin="round"/>
<path d="M943.262 118.939L922.087 27.9651C913.855 29.9071 906.771 35.2549 902.394 42.832C898.017 50.4091 896.705 59.5949 898.747 68.3686" stroke="black" stroke-width="2" stroke-linecap="round" stroke-linejoin="round"/>
<g clip-path="url(#clip2)">
<path d="M111.343 126.641C124.221 129.679 136.316 125.03 138.359 116.256C140.401 107.483 131.616 97.9079 118.738 94.87C105.86 91.8321 93.7653 96.4817 91.7232 105.255C89.6811 114.029 98.4653 123.604 111.343 126.641Z" stroke="black" stroke-width="2" stroke-linecap="round" stroke-linejoin="round"/>
<path d="M138.605 115.197L160.297 22.0012C170.192 24.3354 178.851 30.1444 184.368 38.1504C189.885 46.1564 191.81 55.7036 189.717 64.6917" stroke="black" stroke-width="2" stroke-linecap="round" stroke-linejoin="round"/>
</g>
<defs>
<clipPath id="clip0">
<rect width="130.126" height="125" fill="white" transform="translate(0 140)"/>
</clipPath>
<clipPath id="clip1">
<rect width="121.186" height="125" fill="white" transform="translate(952 140)"/>
</clipPath>
<clipPath id="clip2">
<rect width="153.329" height="139.182" fill="white" transform="matrix(0.973286 0.229597 -0.226701 0.973965 96.7317 5)"/>
</clipPath>
</defs>
</svg>
