<svg width="1049" height="196" viewBox="0 0 1049 196" fill="none" xmlns="http://www.w3.org/2000/svg">
<g filter="url(#filter0_ddd)">
<path d="M47.9649 84.68C52.9249 85.48 56.9249 87.88 59.9649 91.88C63.0849 95.8 64.6449 100.52 64.6449 106.04C64.6449 111.08 63.3649 115.44 60.8049 119.12C58.2449 122.8 54.6049 125.64 49.8849 127.64C45.2449 129.64 39.7649 130.64 33.4449 130.64C21.2849 130.64 12.0049 126.8 5.60487 119.12L14.7249 107.72C16.8049 110.36 19.2849 112.4 22.1649 113.84C25.1249 115.28 28.7249 116 32.9649 116C37.8449 116 41.5649 115 44.1249 113C46.6849 111.08 47.9649 108.16 47.9649 104.24C47.9649 100.08 46.4849 96.88 43.5249 94.64C40.5649 92.4 36.0849 91.28 30.0849 91.28H26.7249V79.28H30.4449C35.3249 79.28 39.1249 78.2 41.8449 76.04C44.6449 73.8 46.0449 70.96 46.0449 67.52C46.0449 64.32 44.9249 61.92 42.6849 60.32C40.4449 58.64 37.5249 57.8 33.9249 57.8C26.4849 57.8 20.8049 61 16.8849 67.4L6.80487 56.12C8.48487 53.72 10.7649 51.6 13.6449 49.76C16.6049 47.92 19.9649 46.48 23.7249 45.44C27.5649 44.4 31.5649 43.88 35.7249 43.88C41.1649 43.88 45.9249 44.76 50.0049 46.52C54.1649 48.28 57.4049 50.76 59.7249 53.96C62.0449 57.16 63.2049 60.88 63.2049 65.12C63.2049 68.32 62.5649 71.32 61.2849 74.12C60.0049 76.84 58.2049 79.16 55.8849 81.08C53.6449 82.92 51.0049 84.12 47.9649 84.68ZM136.959 77.84C136.959 84.88 135.599 91.16 132.879 96.68C130.239 102.12 126.559 106.4 121.839 109.52C117.199 112.64 111.919 114.2 105.999 114.2C100.079 114.2 94.7589 112.64 90.0389 109.52C85.3989 106.4 81.7189 102.12 78.9989 96.68C76.3589 91.16 75.0389 84.88 75.0389 77.84C75.0389 70.8 76.3589 64.56 78.9989 59.12C81.7189 53.6 85.3989 49.28 90.0389 46.16C94.7589 42.96 100.079 41.36 105.999 41.36C111.919 41.36 117.199 42.96 121.839 46.16C126.559 49.28 130.239 53.6 132.879 59.12C135.599 64.56 136.959 70.8 136.959 77.84ZM120.759 77.84C120.759 71.44 119.359 66.24 116.559 62.24C113.839 58.16 110.319 56.12 105.999 56.12C101.519 56.12 97.9189 58.16 95.1989 62.24C92.4789 66.24 91.1189 71.44 91.1189 77.84C91.1189 84.24 92.4789 89.44 95.1989 93.44C97.9189 97.44 101.519 99.44 105.999 99.44C110.319 99.44 113.839 97.44 116.559 93.44C119.359 89.44 120.759 84.24 120.759 77.84ZM231.338 50.12C230.618 49.32 229.098 48.28 226.778 47C224.458 45.64 221.658 44.44 218.378 43.4C215.178 42.28 211.858 41.72 208.418 41.72C199.378 41.72 194.858 44.92 194.858 51.32C194.858 53.64 195.578 55.48 197.018 56.84C198.458 58.2 200.618 59.36 203.498 60.32C206.378 61.28 209.978 62.32 214.298 63.44C219.898 64.88 224.738 66.56 228.818 68.48C232.978 70.4 236.138 72.96 238.298 76.16C240.538 79.28 241.658 83.44 241.658 88.64C241.658 94.72 240.178 99.64 237.218 103.4C234.338 107.08 230.498 109.76 225.698 111.44C220.898 113.12 215.698 113.96 210.098 113.96C203.698 113.96 197.338 113 191.018 111.08C184.778 109.08 179.218 106.36 174.338 102.92L181.658 88.64C182.378 89.36 183.658 90.32 185.498 91.52C187.338 92.64 189.578 93.8 192.218 95C194.858 96.12 197.738 97.08 200.858 97.88C203.978 98.68 207.138 99.08 210.338 99.08C219.458 99.08 224.018 96.16 224.018 90.32C224.018 87.84 223.098 85.84 221.258 84.32C219.418 82.8 216.818 81.52 213.458 80.48C210.178 79.44 206.338 78.28 201.938 77C196.498 75.48 191.978 73.8 188.378 71.96C184.858 70.04 182.218 67.68 180.458 64.88C178.698 62 177.818 58.36 177.818 53.96C177.818 48.12 179.178 43.24 181.898 39.32C184.698 35.32 188.458 32.32 193.178 30.32C197.898 28.24 203.138 27.2 208.898 27.2C214.818 27.2 220.338 28.16 225.458 30.08C230.578 32 234.978 34.2 238.658 36.68L231.338 50.12ZM281.772 114.2C274.972 114.2 269.092 112.72 264.132 109.76C259.252 106.8 255.452 102.88 252.732 98C250.012 93.04 248.652 87.68 248.652 81.92C248.652 76 249.972 70.56 252.612 65.6C255.332 60.56 259.172 56.56 264.132 53.6C269.092 50.56 275.012 49.04 281.892 49.04C288.772 49.04 294.652 50.56 299.532 53.6C304.412 56.56 308.132 60.52 310.692 65.48C313.332 70.36 314.652 75.64 314.652 81.32C314.652 83.4 314.532 85.2 314.292 86.72H265.692C266.092 91.6 267.892 95.44 271.092 98.24C274.372 101.04 278.132 102.44 282.372 102.44C285.572 102.44 288.572 101.68 291.372 100.16C294.252 98.56 296.212 96.48 297.252 93.92L311.052 97.76C308.732 102.56 305.012 106.52 299.892 109.64C294.772 112.68 288.732 114.2 281.772 114.2ZM265.332 76.52H298.212C297.732 71.8 295.932 68 292.812 65.12C289.772 62.16 286.052 60.68 281.652 60.68C277.332 60.68 273.612 62.16 270.492 65.12C267.452 68 265.732 71.8 265.332 76.52ZM353.728 114.2C346.928 114.2 341.048 112.68 336.088 109.64C331.128 106.6 327.288 102.6 324.568 97.64C321.848 92.68 320.488 87.32 320.488 81.56C320.488 75.72 321.808 70.32 324.448 65.36C327.168 60.4 331.008 56.44 335.968 53.48C340.928 50.52 346.808 49.04 353.608 49.04C360.488 49.04 366.328 50.52 371.128 53.48C376.008 56.44 379.648 60.32 382.048 65.12L366.328 69.92C363.528 65.12 359.248 62.72 353.488 62.72C350.368 62.72 347.568 63.52 345.088 65.12C342.608 66.64 340.648 68.84 339.208 71.72C337.768 74.52 337.048 77.8 337.048 81.56C337.048 85.24 337.768 88.52 339.208 91.4C340.728 94.2 342.728 96.44 345.208 98.12C347.688 99.72 350.448 100.52 353.488 100.52C356.368 100.52 359.008 99.84 361.408 98.48C363.888 97.04 365.608 95.24 366.568 93.08L382.288 97.88C380.128 102.6 376.528 106.52 371.488 109.64C366.528 112.68 360.608 114.2 353.728 114.2ZM420.636 114.2C413.756 114.2 407.836 112.72 402.876 109.76C397.996 106.72 394.236 102.72 391.596 97.76C388.956 92.8 387.636 87.44 387.636 81.68C387.636 75.84 388.956 70.44 391.596 65.48C394.316 60.52 398.116 56.56 402.996 53.6C407.956 50.56 413.836 49.04 420.636 49.04C427.436 49.04 433.276 50.56 438.156 53.6C443.116 56.56 446.916 60.52 449.556 65.48C452.196 70.44 453.516 75.84 453.516 81.68C453.516 87.44 452.196 92.8 449.556 97.76C446.916 102.72 443.116 106.72 438.156 109.76C433.276 112.72 427.436 114.2 420.636 114.2ZM404.196 81.68C404.196 85.36 404.916 88.64 406.356 91.52C407.796 94.32 409.756 96.52 412.236 98.12C414.716 99.72 417.516 100.52 420.636 100.52C423.676 100.52 426.436 99.72 428.916 98.12C431.396 96.44 433.356 94.2 434.796 91.4C436.316 88.52 437.076 85.24 437.076 81.56C437.076 77.96 436.316 74.76 434.796 71.96C433.356 69.08 431.396 66.84 428.916 65.24C426.436 63.56 423.676 62.72 420.636 62.72C417.516 62.72 414.716 63.56 412.236 65.24C409.756 66.84 407.796 69.08 406.356 71.96C404.916 74.76 404.196 78 404.196 81.68ZM522.81 113H506.73V77.72C506.73 72.68 505.85 69 504.09 66.68C502.33 64.36 499.89 63.2 496.77 63.2C494.61 63.2 492.41 63.76 490.17 64.88C488.01 66 486.05 67.56 484.29 69.56C482.53 71.48 481.25 73.72 480.45 76.28V113H464.37V50.12H478.89V61.76C481.21 57.84 484.57 54.76 488.97 52.52C493.37 50.2 498.33 49.04 503.85 49.04C507.77 49.04 510.97 49.76 513.45 51.2C515.93 52.56 517.85 54.44 519.21 56.84C520.57 59.16 521.49 61.8 521.97 64.76C522.53 67.72 522.81 70.72 522.81 73.76V113ZM561.391 113.36C555.791 113.36 550.871 111.92 546.631 109.04C542.391 106.16 539.071 102.32 536.671 97.52C534.271 92.64 533.071 87.32 533.071 81.56C533.071 75.48 534.311 70 536.791 65.12C539.271 60.16 542.711 56.24 547.111 53.36C551.511 50.48 556.591 49.04 562.351 49.04C567.231 49.04 571.511 50.16 575.191 52.4C578.871 54.56 581.911 57.48 584.311 61.16V50.12H598.351V110C598.351 116.24 596.831 121.56 593.791 125.96C590.831 130.44 586.711 133.84 581.431 136.16C576.151 138.56 570.151 139.76 563.431 139.76C556.551 139.76 550.751 138.6 546.031 136.28C541.391 134.04 537.391 130.84 534.031 126.68L542.791 118.16C545.191 121.12 548.191 123.44 551.791 125.12C555.471 126.8 559.351 127.64 563.431 127.64C566.791 127.64 569.871 127 572.671 125.72C575.551 124.52 577.871 122.6 579.631 119.96C581.391 117.4 582.271 114.08 582.271 110V102.08C580.191 105.68 577.231 108.48 573.391 110.48C569.631 112.4 565.631 113.36 561.391 113.36ZM566.791 100.52C570.311 100.52 573.471 99.48 576.271 97.4C579.151 95.32 581.151 92.84 582.271 89.96V74.96C580.831 71.28 578.551 68.32 575.431 66.08C572.391 63.84 569.191 62.72 565.831 62.72C562.551 62.72 559.671 63.64 557.191 65.48C554.791 67.32 552.911 69.72 551.551 72.68C550.191 75.56 549.511 78.68 549.511 82.04C549.511 85.48 550.271 88.6 551.791 91.4C553.311 94.2 555.351 96.44 557.911 98.12C560.551 99.72 563.511 100.52 566.791 100.52ZM636.006 114.2C630.646 114.2 625.526 113.32 620.646 111.56C615.766 109.8 611.566 107.2 608.046 103.76L613.806 93.32C617.566 96.36 621.246 98.6 624.846 100.04C628.446 101.48 631.966 102.2 635.406 102.2C638.526 102.2 641.006 101.64 642.846 100.52C644.766 99.4 645.726 97.72 645.726 95.48C645.726 93.16 644.566 91.6 642.246 90.8C639.926 89.92 636.686 88.84 632.526 87.56C627.886 86.12 624.006 84.64 620.886 83.12C617.766 81.6 615.406 79.76 613.806 77.6C612.286 75.44 611.526 72.64 611.526 69.2C611.526 63.04 613.846 58.12 618.486 54.44C623.126 50.76 629.286 48.92 636.966 48.92C641.446 48.92 645.686 49.64 649.686 51.08C653.686 52.44 657.326 54.68 660.606 57.8L654.126 68C647.966 63.2 642.006 60.8 636.246 60.8C633.686 60.8 631.406 61.28 629.406 62.24C627.486 63.2 626.526 64.88 626.526 67.28C626.526 69.52 627.446 71.12 629.286 72.08C631.206 73.04 634.086 74.08 637.926 75.2C642.886 76.72 647.086 78.2 650.526 79.64C654.046 81.08 656.686 82.92 658.446 85.16C660.286 87.4 661.206 90.44 661.206 94.28C661.206 100.52 658.926 105.4 654.366 108.92C649.806 112.44 643.686 114.2 636.006 114.2Z" fill="#FBFDEE"/>
<path d="M47.9649 84.68L47.7837 83.6965L47.8056 85.6672L47.9649 84.68ZM59.9649 91.88L59.1687 92.4851L59.1755 92.494L59.1825 92.5027L59.9649 91.88ZM60.8049 119.12L61.6258 119.691L61.6258 119.691L60.8049 119.12ZM49.8849 127.64L49.4947 126.719L49.489 126.722L49.8849 127.64ZM5.60487 119.12L4.824 118.495L4.31392 119.133L4.83665 119.76L5.60487 119.12ZM14.7249 107.72L15.5104 107.101L14.7309 106.112L13.944 107.095L14.7249 107.72ZM22.1649 113.84L21.7176 114.734L21.7274 114.739L22.1649 113.84ZM44.1249 113L43.5249 112.2L43.517 112.206L43.5092 112.212L44.1249 113ZM43.5249 94.64L44.1283 93.8426L44.1283 93.8426L43.5249 94.64ZM26.7249 91.28H25.7249V92.28H26.7249V91.28ZM26.7249 79.28V78.28H25.7249V79.28H26.7249ZM41.8449 76.04L42.4668 76.8231L42.4696 76.8209L41.8449 76.04ZM42.6849 60.32L42.0849 61.12L42.0942 61.127L42.1036 61.1337L42.6849 60.32ZM16.8849 67.4L16.1392 68.0663L17.0353 69.069L17.7376 67.9223L16.8849 67.4ZM6.80487 56.12L5.98564 55.5465L5.53131 56.1956L6.05922 56.7863L6.80487 56.12ZM13.6449 49.76L13.1169 48.9106L13.1065 48.9173L13.6449 49.76ZM23.7249 45.44L23.4635 44.4748L23.4583 44.4762L23.7249 45.44ZM50.0049 46.52L49.6088 47.4382L49.6152 47.441L50.0049 46.52ZM59.7249 53.96L60.5345 53.373L60.5345 53.373L59.7249 53.96ZM61.2849 74.12L62.1897 74.5458L62.1943 74.5358L61.2849 74.12ZM55.8849 81.08L56.5196 81.8527L56.5224 81.8504L55.8849 81.08ZM47.8056 85.6672C52.5121 86.4264 56.2841 88.6895 59.1687 92.4851L60.761 91.2749C57.5657 87.0705 53.3376 84.5336 48.1241 83.6928L47.8056 85.6672ZM59.1825 92.5027C62.1471 96.2275 63.6449 100.722 63.6449 106.04H65.6449C65.6449 100.318 64.0227 95.3725 60.7473 91.2573L59.1825 92.5027ZM63.6449 106.04C63.6449 110.902 62.4132 115.057 59.984 118.549L61.6258 119.691C64.3166 115.823 65.6449 111.258 65.6449 106.04H63.6449ZM59.984 118.549C57.5465 122.053 54.0666 124.782 49.4947 126.719L50.275 128.561C55.1432 126.498 58.9432 123.547 61.6258 119.691L59.984 118.549ZM49.489 126.722C45.0012 128.656 39.6618 129.64 33.4449 129.64V131.64C39.868 131.64 45.4886 130.624 50.2807 128.558L49.489 126.722ZM33.4449 129.64C21.5111 129.64 12.5422 125.883 6.37309 118.48L4.83665 119.76C11.4676 127.717 21.0586 131.64 33.4449 131.64V129.64ZM6.38574 119.745L15.5057 108.345L13.944 107.095L4.824 118.495L6.38574 119.745ZM13.9394 108.339C16.1064 111.089 18.7002 113.226 21.7177 114.734L22.6121 112.946C19.8695 111.574 17.5034 109.631 15.5104 107.101L13.9394 108.339ZM21.7274 114.739C24.8571 116.262 28.6155 117 32.9649 117V115C28.8343 115 25.3926 114.298 22.6023 112.941L21.7274 114.739ZM32.9649 117C37.961 117 41.9358 115.979 44.7405 113.788L43.5092 112.212C41.194 114.021 37.7287 115 32.9649 115V117ZM44.7249 113.8C47.5939 111.648 48.9649 108.396 48.9649 104.24H46.9649C46.9649 107.924 45.7759 110.512 43.5249 112.2L44.7249 113.8ZM48.9649 104.24C48.9649 99.8101 47.3707 96.2963 44.1283 93.8426L42.9214 95.4374C45.599 97.4637 46.9649 100.35 46.9649 104.24H48.9649ZM44.1283 93.8426C40.9166 91.4121 36.1788 90.28 30.0849 90.28V92.28C35.991 92.28 40.2132 93.3879 42.9214 95.4374L44.1283 93.8426ZM30.0849 90.28H26.7249V92.28H30.0849V90.28ZM27.7249 91.28V79.28H25.7249V91.28H27.7249ZM26.7249 80.28H30.4449V78.28H26.7249V80.28ZM30.4449 80.28C35.461 80.28 39.5105 79.1707 42.4668 76.8231L41.223 75.2569C38.7392 77.2293 35.1888 78.28 30.4449 78.28V80.28ZM42.4696 76.8209C45.4951 74.4004 47.0449 71.2784 47.0449 67.52H45.0449C45.0449 70.6416 43.7946 73.1996 41.2202 75.2591L42.4696 76.8209ZM47.0449 67.52C47.0449 64.0572 45.8143 61.3264 43.2661 59.5063L42.1036 61.1337C44.0355 62.5136 45.0449 64.5828 45.0449 67.52H47.0449ZM43.2849 59.52C40.8279 57.6773 37.6791 56.8 33.9249 56.8V58.8C37.3707 58.8 40.0619 59.6027 42.0849 61.12L43.2849 59.52ZM33.9249 56.8C26.1331 56.8 20.1319 60.1841 16.0321 66.8777L17.7376 67.9223C21.4778 61.8159 26.8366 58.8 33.9249 58.8V56.8ZM17.6305 66.7337L7.55053 55.4537L6.05922 56.7863L16.1392 68.0663L17.6305 66.7337ZM7.6241 56.6935C9.21759 54.4171 11.3955 52.3838 14.1833 50.6027L13.1065 48.9173C10.1343 50.8162 7.75216 53.0229 5.98564 55.5465L7.6241 56.6935ZM14.1728 50.6093C17.0426 48.8254 20.3128 47.4213 23.9915 46.4038L23.4583 44.4762C19.617 45.5387 16.1672 47.0146 13.1169 48.9107L14.1728 50.6093ZM23.9863 46.4052C27.7373 45.3893 31.6491 44.88 35.7249 44.88V42.88C31.4806 42.88 27.3925 43.4107 23.4635 44.4748L23.9863 46.4052ZM35.7249 44.88C41.0584 44.88 45.6786 45.7428 49.6088 47.4382L50.401 45.6018C46.1712 43.7772 41.2713 42.88 35.7249 42.88V44.88ZM49.6152 47.441C53.6319 49.1403 56.7168 51.5146 58.9153 54.547L60.5345 53.373C58.093 50.0054 54.6979 47.4197 50.3945 45.599L49.6152 47.441ZM58.9153 54.547C61.1023 57.5636 62.2049 61.0746 62.2049 65.12H64.2049C64.2049 60.6854 62.9874 56.7564 60.5345 53.373L58.9153 54.547ZM62.2049 65.12C62.2049 68.1823 61.5934 71.0399 60.3754 73.7042L62.1943 74.5358C63.5364 71.6001 64.2049 68.4577 64.2049 65.12H62.2049ZM60.3801 73.6942C59.1628 76.2808 57.4542 78.4832 55.2473 80.3096L56.5224 81.8504C58.9556 79.8368 60.8469 77.3992 62.1897 74.5458L60.3801 73.6942ZM55.2501 80.3073C53.1497 82.0326 50.6685 83.1651 47.7837 83.6965L48.146 85.6635C51.3412 85.0749 54.14 83.8074 56.5196 81.8527L55.2501 80.3073ZM132.879 96.68L131.982 96.238L131.979 96.2434L132.879 96.68ZM121.839 109.52L121.287 108.686L121.281 108.69L121.839 109.52ZM90.0389 109.52L89.4809 110.35L89.4875 110.354L90.0389 109.52ZM78.9989 96.68L78.0968 97.1115L78.1006 97.1194L78.1045 97.1272L78.9989 96.68ZM78.9989 59.12L78.1019 58.678L78.0993 58.6834L78.9989 59.12ZM90.0389 46.16L90.5969 46.9898L90.6001 46.9877L90.0389 46.16ZM121.839 46.16L121.271 46.9832L121.279 46.9888L121.288 46.9942L121.839 46.16ZM132.879 59.12L131.977 59.5515L131.981 59.5594L131.985 59.5672L132.879 59.12ZM116.559 62.24L115.727 62.7947L115.733 62.8042L115.74 62.8135L116.559 62.24ZM95.1989 62.24L96.0259 62.8023L96.031 62.7947L95.1989 62.24ZM95.1989 93.44L94.372 94.0023L94.372 94.0023L95.1989 93.44ZM116.559 93.44L115.74 92.8665L115.732 92.8777L116.559 93.44ZM135.959 77.84C135.959 84.7489 134.625 90.8741 131.982 96.238L133.776 97.122C136.573 91.4459 137.959 85.0111 137.959 77.84H135.959ZM131.979 96.2434C129.412 101.534 125.848 105.672 121.288 108.686L122.39 110.354C127.27 107.128 131.066 102.706 133.779 97.1166L131.979 96.2434ZM121.281 108.69C116.816 111.693 111.732 113.2 105.999 113.2V115.2C112.105 115.2 117.582 113.587 122.397 110.35L121.281 108.69ZM105.999 113.2C100.265 113.2 95.139 111.692 90.5904 108.686L89.4875 110.354C94.3789 113.588 99.8924 115.2 105.999 115.2V113.2ZM90.5969 108.69C86.1126 105.675 82.5431 101.532 79.8934 96.2328L78.1045 97.1272C80.8948 102.708 84.6852 107.125 89.4809 110.35L90.5969 108.69ZM79.9011 96.2485C77.3345 90.8821 76.0389 84.7531 76.0389 77.84H74.0389C74.0389 85.0069 75.3833 91.4378 78.0968 97.1115L79.9011 96.2485ZM76.0389 77.84C76.0389 70.9265 77.3346 64.8399 79.8986 59.5566L78.0993 58.6834C75.3832 64.2801 74.0389 70.6735 74.0389 77.84H76.0389ZM79.8959 59.562C82.5467 54.1825 86.1161 50.0028 90.5969 46.9898L89.4809 45.3302C84.6817 48.5572 80.8912 53.0175 78.1019 58.678L79.8959 59.562ZM90.6001 46.9877C95.1479 43.9044 100.271 42.36 105.999 42.36V40.36C99.8869 40.36 94.37 42.0156 89.4778 45.3323L90.6001 46.9877ZM105.999 42.36C111.727 42.36 116.807 43.9043 121.271 46.9832L122.407 45.3368C117.591 42.0157 112.111 40.36 105.999 40.36V42.36ZM121.288 46.9942C125.844 50.0061 129.408 54.1812 131.977 59.5515L133.781 58.6885C131.069 53.0188 127.274 48.5539 122.39 45.3258L121.288 46.9942ZM131.985 59.5672C134.625 64.848 135.959 70.9308 135.959 77.84H137.959C137.959 70.6692 136.573 64.272 133.773 58.6728L131.985 59.5672ZM121.759 77.84C121.759 71.298 120.328 65.8799 117.378 61.6665L115.74 62.8135C118.39 66.6001 119.759 71.582 119.759 77.84H121.759ZM117.391 61.6853C114.515 57.371 110.703 55.12 105.999 55.12V57.12C109.935 57.12 113.163 58.949 115.727 62.7947L117.391 61.6853ZM105.999 55.12C101.149 55.12 97.2516 57.3582 94.3669 61.6853L96.031 62.7947C98.5862 58.9618 101.889 57.12 105.999 57.12V55.12ZM94.372 61.6777C91.508 65.8894 90.1189 71.3033 90.1189 77.84H92.1189C92.1189 71.5767 93.4499 66.5906 96.0259 62.8023L94.372 61.6777ZM90.1189 77.84C90.1189 84.3767 91.508 89.7906 94.372 94.0023L96.0259 92.8777C93.4499 89.0894 92.1189 84.1033 92.1189 77.84H90.1189ZM94.372 94.0023C97.2607 98.2503 101.158 100.44 105.999 100.44V98.44C101.88 98.44 98.5772 96.6297 96.0259 92.8777L94.372 94.0023ZM105.999 100.44C110.694 100.44 114.506 98.2378 117.386 94.0023L115.732 92.8777C113.172 96.6422 109.944 98.44 105.999 98.44V100.44ZM117.378 94.0135C120.328 89.8001 121.759 84.382 121.759 77.84H119.759C119.759 84.098 118.39 89.0799 115.74 92.8665L117.378 94.0135ZM231.338 50.12L230.595 50.789L231.54 51.8395L232.216 50.5983L231.338 50.12ZM226.778 47L226.272 47.8627L226.284 47.8693L226.295 47.8756L226.778 47ZM218.378 43.4L218.048 44.3439L218.062 44.3487L218.076 44.3532L218.378 43.4ZM203.498 60.32L203.182 61.2687L203.182 61.2687L203.498 60.32ZM214.298 63.44L214.047 64.408L214.049 64.4085L214.298 63.44ZM228.818 68.48L228.392 69.3848L228.399 69.388L228.818 68.48ZM238.298 76.16L237.469 76.7195L237.477 76.7315L237.486 76.7432L238.298 76.16ZM237.218 103.4L236.432 102.781L236.43 102.784L237.218 103.4ZM225.698 111.44L225.368 110.496L225.368 110.496L225.698 111.44ZM191.018 111.08L190.713 112.032L190.72 112.035L190.727 112.037L191.018 111.08ZM174.338 102.92L173.448 102.464L173.052 103.237L173.762 103.737L174.338 102.92ZM181.658 88.64L182.365 87.9329L181.394 86.9621L180.768 88.1838L181.658 88.64ZM185.498 91.52L184.952 92.3576L184.965 92.3661L184.978 92.3742L185.498 91.52ZM192.218 95L191.804 95.9104L191.816 95.9156L191.827 95.9206L192.218 95ZM200.858 97.88L200.61 98.8487L200.61 98.8487L200.858 97.88ZM221.258 84.32L220.621 85.091L220.621 85.091L221.258 84.32ZM213.458 80.48L213.156 81.4332L213.162 81.4353L213.458 80.48ZM201.938 77L202.217 76.0397L202.207 76.0369L201.938 77ZM188.378 71.96L187.899 72.8379L187.911 72.8443L187.923 72.8504L188.378 71.96ZM180.458 64.88L179.605 65.4015L179.611 65.4122L180.458 64.88ZM181.898 39.32L181.079 38.7465L181.076 38.7499L181.898 39.32ZM193.178 30.32L193.568 31.2408L193.575 31.238L193.581 31.2351L193.178 30.32ZM238.658 36.68L239.536 37.1583L239.971 36.3592L239.217 35.8507L238.658 36.68ZM232.081 49.451C231.236 48.5118 229.577 47.4022 227.261 46.1244L226.295 47.8756C228.619 49.1578 230 50.1281 230.595 50.789L232.081 49.451ZM227.284 46.1373C224.885 44.7309 222.013 43.5034 218.68 42.4468L218.076 44.3532C221.303 45.3766 224.031 46.5491 226.272 47.8627L227.284 46.1373ZM218.708 42.4561C215.401 41.2984 211.969 40.72 208.418 40.72V42.72C211.747 42.72 214.955 43.2616 218.048 44.3439L218.708 42.4561ZM208.418 40.72C203.81 40.72 200.176 41.53 197.67 43.3038C195.101 45.1225 193.858 47.8536 193.858 51.32H195.858C195.858 48.3864 196.875 46.3175 198.826 44.9362C200.84 43.51 203.986 42.72 208.418 42.72V40.72ZM193.858 51.32C193.858 53.8638 194.657 55.9856 196.331 57.567L197.705 56.113C196.499 54.9744 195.858 53.4162 195.858 51.32H193.858ZM196.331 57.567C197.918 59.0659 200.23 60.2848 203.182 61.2687L203.814 59.3713C201.006 58.4352 198.998 57.334 197.705 56.113L196.331 57.567ZM203.182 61.2687C206.091 62.2383 209.714 63.2847 214.047 64.408L214.549 62.472C210.242 61.3553 206.665 60.3217 203.814 59.3713L203.182 61.2687ZM214.049 64.4085C219.604 65.837 224.382 67.4978 228.392 69.3848L229.244 67.5752C225.094 65.6222 220.192 63.923 214.547 62.4715L214.049 64.4085ZM228.399 69.388C232.424 71.2458 235.429 73.6971 237.469 76.7195L239.127 75.6005C236.847 72.2229 233.532 69.5542 229.237 67.572L228.399 69.388ZM237.486 76.7432C239.567 79.6424 240.658 83.5765 240.658 88.64H242.658C242.658 83.3035 241.509 78.9176 239.11 75.5768L237.486 76.7432ZM240.658 88.64C240.658 94.5573 239.22 99.2407 236.432 102.781L238.004 104.019C241.136 100.039 242.658 94.8827 242.658 88.64H240.658ZM236.43 102.784C233.679 106.3 230.004 108.874 225.368 110.496L226.028 112.384C230.992 110.646 234.997 107.86 238.006 104.016L236.43 102.784ZM225.368 110.496C220.684 112.135 215.597 112.96 210.098 112.96V114.96C215.799 114.96 221.112 114.105 226.028 112.384L225.368 110.496ZM210.098 112.96C203.8 112.96 197.537 112.015 191.309 110.123L190.727 112.037C197.139 113.985 203.596 114.96 210.098 114.96V112.96ZM191.323 110.128C185.171 108.156 179.704 105.479 174.914 102.103L173.762 103.737C178.732 107.241 184.385 110.004 190.713 112.032L191.323 110.128ZM175.228 103.376L182.548 89.0962L180.768 88.1838L173.448 102.464L175.228 103.376ZM180.951 89.3471C181.749 90.1456 183.104 91.1528 184.952 92.3576L186.044 90.6824C184.212 89.4872 183.007 88.5744 182.365 87.9329L180.951 89.3471ZM184.978 92.3742C186.862 93.5207 189.139 94.6991 191.804 95.9104L192.632 94.0896C190.017 92.9009 187.814 91.7593 186.018 90.6658L184.978 92.3742ZM191.827 95.9206C194.519 97.0624 197.447 98.0377 200.61 98.8487L201.106 96.9113C198.029 96.1223 195.197 95.1776 192.609 94.0794L191.827 95.9206ZM200.61 98.8487C203.81 99.6693 207.054 100.08 210.338 100.08V98.08C207.222 98.08 204.146 97.6907 201.106 96.9113L200.61 98.8487ZM210.338 100.08C214.973 100.08 218.62 99.3439 221.137 97.7321C223.73 96.0717 225.018 93.5489 225.018 90.32H223.018C223.018 92.9311 222.026 94.7883 220.059 96.0479C218.016 97.3561 214.823 98.08 210.338 98.08V100.08ZM225.018 90.32C225.018 87.5552 223.975 85.2674 221.895 83.549L220.621 85.091C222.221 86.4126 223.018 88.1248 223.018 90.32H225.018ZM221.895 83.549C219.918 81.9163 217.185 80.5866 213.754 79.5247L213.162 81.4353C216.451 82.4534 218.918 83.6837 220.621 85.091L221.895 83.549ZM213.76 79.5268C210.471 78.4837 206.623 77.3214 202.217 76.0398L201.659 77.9602C206.053 79.2386 209.885 80.3963 213.156 81.4332L213.76 79.5268ZM202.207 76.0369C196.808 74.5284 192.355 72.8699 188.833 71.0696L187.923 72.8504C191.601 74.7301 196.188 76.4316 201.669 77.9631L202.207 76.0369ZM188.857 71.0821C185.455 69.2267 182.956 66.9752 181.305 64.3478L179.611 65.4122C181.48 68.3848 184.261 70.8533 187.899 72.8379L188.857 71.0821ZM181.311 64.3585C179.672 61.6765 178.818 58.2307 178.818 53.96H176.818C176.818 58.4893 177.724 62.3235 179.605 65.4014L181.311 64.3585ZM178.818 53.96C178.818 48.2775 180.14 43.6083 182.72 39.8901L181.076 38.7499C178.216 42.8717 176.818 47.9625 176.818 53.96H178.818ZM182.717 39.8935C185.404 36.055 189.012 33.1714 193.568 31.2408L192.788 29.3992C187.904 31.4686 183.992 34.585 181.079 38.7465L182.717 39.8935ZM193.581 31.2351C198.16 29.2173 203.261 28.2 208.898 28.2V26.2C203.015 26.2 197.636 27.2627 192.775 29.4049L193.581 31.2351ZM208.898 28.2C214.708 28.2 220.108 29.1418 225.107 31.0163L225.809 29.1437C220.568 27.1782 214.928 26.2 208.898 26.2V28.2ZM225.107 31.0163C230.17 32.9149 234.497 35.0816 238.099 37.5093L239.217 35.8507C235.459 33.3183 230.986 31.085 225.809 29.1437L225.107 31.0163ZM237.78 36.2017L230.46 49.6417L232.216 50.5983L239.536 37.1583L237.78 36.2017ZM264.132 109.76L263.613 110.615L263.619 110.619L264.132 109.76ZM252.732 98L251.855 98.4808L251.858 98.4869L252.732 98ZM252.612 65.6L251.732 65.1251L251.729 65.1301L252.612 65.6ZM264.132 53.6L264.644 54.4588L264.654 54.4526L264.132 53.6ZM299.532 53.6L299.003 54.4488L299.013 54.455L299.532 53.6ZM310.692 65.48L309.803 65.9386L309.808 65.9473L309.812 65.9558L310.692 65.48ZM314.292 86.72V87.72H315.146L315.28 86.876L314.292 86.72ZM265.692 86.72V85.72H264.606L264.695 86.8017L265.692 86.72ZM271.092 98.24L270.433 98.9926L270.442 99.0006L271.092 98.24ZM291.372 100.16L291.849 101.039L291.857 101.034L291.372 100.16ZM297.252 93.92L297.52 92.9566L296.661 92.7176L296.325 93.5436L297.252 93.92ZM311.052 97.76L311.952 98.1952L312.473 97.1175L311.32 96.7966L311.052 97.76ZM299.892 109.64L300.402 110.5L300.412 110.494L299.892 109.64ZM265.332 76.52L264.335 76.4356L264.243 77.52H265.332V76.52ZM298.212 76.52V77.52H299.319L299.207 76.4188L298.212 76.52ZM292.812 65.12L292.114 65.8365L292.124 65.8458L292.133 65.8548L292.812 65.12ZM270.492 65.12L271.179 65.846L271.18 65.8455L270.492 65.12ZM281.772 113.2C275.12 113.2 269.424 111.754 264.644 108.901L263.619 110.619C268.76 113.686 274.824 115.2 281.772 115.2V113.2ZM264.65 108.905C259.915 106.033 256.239 102.238 253.605 97.5131L251.858 98.4869C254.665 103.522 258.588 107.567 263.613 110.615L264.65 108.905ZM253.609 97.5192C250.971 92.7093 249.652 87.5151 249.652 81.92H247.652C247.652 87.8449 249.053 93.3707 251.855 98.4808L253.609 97.5192ZM249.652 81.92C249.652 76.1548 250.936 70.8774 253.494 66.0698L251.729 65.1301C249.008 70.2426 247.652 75.8452 247.652 81.92H249.652ZM253.492 66.0749C256.125 61.1951 259.838 57.3271 264.644 54.4587L263.619 52.7413C258.506 55.7929 254.538 59.9249 251.732 65.1251L253.492 66.0749ZM264.654 54.4526C269.43 51.5253 275.162 50.04 281.892 50.04V48.04C274.861 48.04 268.753 49.5946 263.609 52.7474L264.654 54.4526ZM281.892 50.04C288.622 50.04 294.31 51.5255 299.003 54.4488L300.06 52.7512C294.993 49.5945 288.922 48.04 281.892 48.04V50.04ZM299.013 54.455C303.739 57.3217 307.33 61.1462 309.803 65.9386L311.58 65.0214C308.934 59.8938 305.084 55.7982 300.05 52.745L299.013 54.455ZM309.812 65.9558C312.371 70.6861 313.652 75.802 313.652 81.32H315.652C315.652 75.478 314.292 70.0339 311.571 65.0042L309.812 65.9558ZM313.652 81.32C313.652 83.3646 313.534 85.11 313.304 86.564L315.28 86.876C315.53 85.29 315.652 83.4354 315.652 81.32H313.652ZM314.292 85.72H265.692V87.72H314.292V85.72ZM264.695 86.8017C265.113 91.8984 267.008 95.9953 270.433 98.9926L271.75 97.4874C268.776 94.8847 267.071 91.3016 266.688 86.6383L264.695 86.8017ZM270.442 99.0006C273.9 101.952 277.889 103.44 282.372 103.44V101.44C278.374 101.44 274.843 100.128 271.741 97.4794L270.442 99.0006ZM282.372 103.44C285.738 103.44 288.902 102.639 291.849 101.039L290.895 99.2811C288.242 100.721 285.406 101.44 282.372 101.44V103.44ZM291.857 101.034C294.897 99.3455 297.037 97.1064 298.178 94.2964L296.325 93.5436C295.387 95.8536 293.607 97.7745 290.886 99.2858L291.857 101.034ZM296.984 94.8834L310.784 98.7234L311.32 96.7966L297.52 92.9566L296.984 94.8834ZM310.151 97.3248C307.925 101.931 304.348 105.753 299.371 108.786L300.412 110.494C305.675 107.287 309.538 103.189 311.952 98.1952L310.151 97.3248ZM299.381 108.78C294.44 111.714 288.583 113.2 281.772 113.2V115.2C288.881 115.2 295.103 113.646 300.402 110.5L299.381 108.78ZM265.332 77.52H298.212V75.52H265.332V77.52ZM299.207 76.4188C298.705 71.4867 296.811 67.4504 293.49 64.3852L292.133 65.8548C295.053 68.5496 296.758 72.1133 297.217 76.6212L299.207 76.4188ZM293.509 64.4035C290.275 61.2544 286.302 59.68 281.652 59.68V61.68C285.802 61.68 289.268 63.0656 292.114 65.8365L293.509 64.4035ZM281.652 59.68C277.077 59.68 273.11 61.2574 269.803 64.3945L271.18 65.8455C274.113 63.0626 277.587 61.68 281.652 61.68V59.68ZM269.804 64.394C266.562 67.4651 264.753 71.5054 264.335 76.4356L266.328 76.6044C266.71 72.0946 268.341 68.5349 271.179 65.846L269.804 64.394ZM336.088 109.64L336.61 108.787L336.61 108.787L336.088 109.64ZM324.568 97.64L325.444 97.1592L325.444 97.1592L324.568 97.64ZM324.448 65.36L323.571 64.8791L323.565 64.8901L324.448 65.36ZM335.968 53.48L336.48 54.3387L336.48 54.3387L335.968 53.48ZM371.128 53.48L370.603 54.3312L370.609 54.335L371.128 53.48ZM382.048 65.12L382.34 66.0764L383.471 65.7309L382.942 64.6728L382.048 65.12ZM366.328 69.92L365.464 70.4239L365.863 71.1075L366.62 70.8764L366.328 69.92ZM345.088 65.12L345.61 65.9726L345.62 65.9666L345.63 65.9603L345.088 65.12ZM339.208 71.72L340.097 72.1774L340.102 72.1672L339.208 71.72ZM339.208 91.4L338.313 91.8472L338.321 91.8623L338.329 91.8771L339.208 91.4ZM345.208 98.12L344.647 98.9479L344.656 98.9542L344.666 98.9603L345.208 98.12ZM361.408 98.48L361.901 99.3501L361.91 99.3448L361.408 98.48ZM366.568 93.08L366.86 92.1236L366.013 91.8651L365.654 92.6739L366.568 93.08ZM382.288 97.88L383.197 98.2961L383.672 97.2572L382.58 96.9236L382.288 97.88ZM371.488 109.64L372.01 110.493L372.014 110.49L371.488 109.64ZM353.728 113.2C347.081 113.2 341.388 111.716 336.61 108.787L335.565 110.493C340.707 113.644 346.775 115.2 353.728 115.2V113.2ZM336.61 108.787C331.794 105.836 328.078 101.962 325.444 97.1592L323.691 98.1208C326.497 103.238 330.461 107.364 335.565 110.493L336.61 108.787ZM325.444 97.1592C322.807 92.3493 321.488 87.1551 321.488 81.56H319.488C319.488 87.4849 320.889 93.0107 323.691 98.1208L325.444 97.1592ZM321.488 81.56C321.488 75.8772 322.771 70.6394 325.33 65.8298L323.565 64.8901C320.845 70.0006 319.488 75.5628 319.488 81.56H321.488ZM325.324 65.8408C327.957 61.0404 331.67 57.2095 336.48 54.3387L335.455 52.6213C330.346 55.6705 326.378 59.7596 323.571 64.8792L325.324 65.8408ZM336.48 54.3387C341.26 51.4864 346.956 50.04 353.608 50.04V48.04C346.66 48.04 340.596 49.5536 335.455 52.6213L336.48 54.3387ZM353.608 50.04C360.343 50.04 365.992 51.4879 370.603 54.3312L371.653 52.6288C366.663 49.5521 360.632 48.04 353.608 48.04V50.04ZM370.609 54.335C375.339 57.2037 378.843 60.9467 381.153 65.5672L382.942 64.6728C380.452 59.6933 376.677 55.6763 371.646 52.625L370.609 54.335ZM381.756 64.1636L366.036 68.9636L366.62 70.8764L382.34 66.0764L381.756 64.1636ZM367.191 69.4161C364.204 64.2953 359.587 61.72 353.488 61.72V63.72C358.908 63.72 362.851 65.9446 365.464 70.4239L367.191 69.4161ZM353.488 61.72C350.187 61.72 347.197 62.5694 344.546 64.2797L345.63 65.9603C347.939 64.4706 350.548 63.72 353.488 63.72V61.72ZM344.565 64.2674C341.909 65.8954 339.828 68.244 338.313 71.2728L340.102 72.1672C341.468 69.436 343.306 67.3846 345.61 65.9726L344.565 64.2674ZM338.318 71.2627C336.793 74.2291 336.048 77.6716 336.048 81.56H338.048C338.048 77.9284 338.743 74.8109 340.097 72.1773L338.318 71.2627ZM336.048 81.56C336.048 85.373 336.795 88.8097 338.313 91.8472L340.102 90.9528C338.741 88.2303 338.048 85.107 338.048 81.56H336.048ZM338.329 91.8771C339.92 94.8086 342.026 97.1724 344.647 98.9479L345.769 97.2921C343.429 95.7076 341.535 93.5914 340.087 90.9229L338.329 91.8771ZM344.666 98.9603C347.312 100.668 350.261 101.52 353.488 101.52V99.52C350.634 99.52 348.063 98.7722 345.75 97.2797L344.666 98.9603ZM353.488 101.52C356.533 101.52 359.344 100.799 361.901 99.35L360.915 97.61C358.672 98.881 356.203 99.52 353.488 99.52V101.52ZM361.91 99.3448C364.532 97.8221 366.419 95.8766 367.482 93.4861L365.654 92.6739C364.796 94.6034 363.243 96.2579 360.906 97.6152L361.91 99.3448ZM366.276 94.0364L381.996 98.8364L382.58 96.9236L366.86 92.1236L366.276 94.0364ZM381.378 97.4639C379.312 101.98 375.858 105.758 370.961 108.79L372.014 110.49C377.197 107.282 380.944 103.22 383.197 98.2961L381.378 97.4639ZM370.965 108.787C366.189 111.715 360.457 113.2 353.728 113.2V115.2C360.758 115.2 366.866 113.645 372.01 110.493L370.965 108.787ZM402.876 109.76L402.347 110.609L402.355 110.614L402.364 110.619L402.876 109.76ZM391.596 97.76L390.713 98.2298L391.596 97.76ZM391.596 65.48L390.719 64.9991L390.713 65.0101L391.596 65.48ZM402.996 53.6L403.515 54.455L403.519 54.4526L402.996 53.6ZM438.156 53.6L437.627 54.4488L437.635 54.4538L437.644 54.4587L438.156 53.6ZM449.556 65.48L448.673 65.9498L449.556 65.48ZM449.556 97.76L450.439 98.2298L450.439 98.2298L449.556 97.76ZM438.156 109.76L438.675 110.615L438.679 110.613L438.156 109.76ZM406.356 91.52L405.462 91.9672L405.467 91.9773L406.356 91.52ZM412.236 98.12L412.778 97.2797L412.778 97.2797L412.236 98.12ZM428.916 98.12L429.458 98.9603L429.468 98.9542L429.477 98.9479L428.916 98.12ZM434.796 91.4L433.912 90.9332L433.907 90.9427L434.796 91.4ZM434.796 71.96L433.902 72.4072L433.909 72.4223L433.917 72.4371L434.796 71.96ZM428.916 65.24L428.355 66.0679L428.365 66.0742L428.374 66.0803L428.916 65.24ZM412.236 65.24L412.778 66.0803L412.788 66.0742L412.797 66.0679L412.236 65.24ZM406.356 71.96L407.245 72.4174L407.251 72.4072L406.356 71.96ZM420.636 113.2C413.902 113.2 408.166 111.753 403.389 108.901L402.364 110.619C407.506 113.687 413.61 115.2 420.636 115.2V113.2ZM403.405 108.911C398.671 105.962 395.034 102.091 392.479 97.2902L390.713 98.2298C393.438 103.349 397.322 107.478 402.347 110.609L403.405 108.911ZM392.479 97.2902C389.918 92.4785 388.636 87.2804 388.636 81.68H386.636C386.636 87.5996 387.994 93.1215 390.713 98.2298L392.479 97.2902ZM388.636 81.68C388.636 75.9972 389.919 70.7594 392.479 65.9498L390.713 65.0101C387.993 70.1206 386.636 75.6828 386.636 81.68H388.636ZM392.473 65.9608C395.108 61.1563 398.784 57.3248 403.515 54.455L402.478 52.745C397.449 55.7952 393.525 59.8837 390.719 64.9992L392.473 65.9608ZM403.519 54.4526C408.296 51.5243 413.989 50.04 420.636 50.04V48.04C413.683 48.04 407.616 49.5957 402.474 52.7474L403.519 54.4526ZM420.636 50.04C427.284 50.04 432.933 51.5244 437.627 54.4488L438.685 52.7512C433.619 49.5956 427.588 48.04 420.636 48.04V50.04ZM437.644 54.4587C442.452 57.328 446.122 61.1555 448.673 65.9498L450.439 65.0101C447.711 59.8845 443.781 55.792 438.669 52.7413L437.644 54.4587ZM448.673 65.9498C451.233 70.7594 452.516 75.9972 452.516 81.68H454.516C454.516 75.6828 453.159 70.1206 450.439 65.0101L448.673 65.9498ZM452.516 81.68C452.516 87.2804 451.234 92.4785 448.673 97.2902L450.439 98.2298C453.158 93.1215 454.516 87.5996 454.516 81.68H452.516ZM448.673 97.2902C446.12 102.087 442.447 105.957 437.634 108.907L438.679 110.613C443.785 107.483 447.712 103.353 450.439 98.2298L448.673 97.2902ZM437.638 108.905C432.942 111.753 427.289 113.2 420.636 113.2V115.2C427.584 115.2 433.611 113.687 438.675 110.615L437.638 108.905ZM403.196 81.68C403.196 85.493 403.943 88.9297 405.462 91.9672L407.251 91.0728C405.889 88.3503 405.196 85.227 405.196 81.68H403.196ZM405.467 91.9773C406.981 94.9224 409.057 97.2589 411.694 98.9603L412.778 97.2797C410.455 95.7811 408.611 93.7176 407.245 91.0627L405.467 91.9773ZM411.694 98.9603C414.345 100.671 417.335 101.52 420.636 101.52V99.52C417.697 99.52 415.087 98.7694 412.778 97.2797L411.694 98.9603ZM420.636 101.52C423.862 101.52 426.812 100.668 429.458 98.9603L428.374 97.2797C426.061 98.7722 423.49 99.52 420.636 99.52V101.52ZM429.477 98.9479C432.103 97.169 434.173 94.7986 435.685 91.8573L433.907 90.9427C432.539 93.6014 430.689 95.711 428.355 97.2921L429.477 98.9479ZM435.681 91.8668C437.286 88.8251 438.076 85.3813 438.076 81.56H436.076C436.076 85.0987 435.346 88.2149 433.912 90.9332L435.681 91.8668ZM438.076 81.56C438.076 77.8153 437.284 74.4475 435.675 71.4829L433.917 72.4371C435.348 75.0725 436.076 78.1047 436.076 81.56H438.076ZM435.691 71.5128C434.178 68.4876 432.102 66.1055 429.458 64.3997L428.374 66.0803C430.69 67.5745 432.534 69.6724 433.902 72.4072L435.691 71.5128ZM429.477 64.4121C426.829 62.6182 423.873 61.72 420.636 61.72V63.72C423.479 63.72 426.043 64.5018 428.355 66.0679L429.477 64.4121ZM420.636 61.72C417.325 61.72 414.328 62.6151 411.675 64.4121L412.797 66.0679C415.104 64.5049 417.707 63.72 420.636 63.72V61.72ZM411.694 64.3997C409.05 66.1055 406.974 68.4876 405.462 71.5128L407.251 72.4072C408.618 69.6724 410.462 67.5745 412.778 66.0803L411.694 64.3997ZM405.467 71.5027C403.943 74.4662 403.196 77.8678 403.196 81.68H405.196C405.196 78.1322 405.89 75.0538 407.245 72.4173L405.467 71.5027ZM522.81 113V114H523.81V113H522.81ZM506.73 113H505.73V114H506.73V113ZM504.09 66.68L503.293 67.2844L503.293 67.2844L504.09 66.68ZM490.17 64.88L489.722 63.9856L489.716 63.9889L489.709 63.9922L490.17 64.88ZM484.29 69.56L485.027 70.2357L485.034 70.2282L485.04 70.2206L484.29 69.56ZM480.45 76.28L479.495 75.9817L479.45 76.1274V76.28H480.45ZM480.45 113V114H481.45V113H480.45ZM464.37 113H463.37V114H464.37V113ZM464.37 50.12V49.12H463.37V50.12H464.37ZM478.89 50.12H479.89V49.12H478.89V50.12ZM478.89 61.76H477.89V65.4131L479.75 62.2693L478.89 61.76ZM488.97 52.52L489.423 53.4112L489.43 53.4079L489.436 53.4046L488.97 52.52ZM513.45 51.2L512.947 52.0648L512.958 52.0709L512.969 52.0768L513.45 51.2ZM519.21 56.84L518.34 57.333L518.343 57.3394L518.347 57.3457L519.21 56.84ZM521.97 64.76L520.982 64.9201L520.985 64.933L520.987 64.9459L521.97 64.76ZM522.81 112H506.73V114H522.81V112ZM507.73 113V77.72H505.73V113H507.73ZM507.73 77.72C507.73 72.6047 506.844 68.6566 504.886 66.0756L503.293 67.2844C504.855 69.3434 505.73 72.7553 505.73 77.72H507.73ZM504.886 66.0756C502.922 63.4864 500.176 62.2 496.77 62.2V64.2C499.603 64.2 501.737 65.2336 503.293 67.2844L504.886 66.0756ZM496.77 62.2C494.431 62.2 492.079 62.8072 489.722 63.9856L490.617 65.7744C492.74 64.7128 494.788 64.2 496.77 64.2V62.2ZM489.709 63.9922C487.429 65.1745 485.373 66.8152 483.539 68.8994L485.04 70.2206C486.726 68.3048 488.59 66.8255 490.63 65.7678L489.709 63.9922ZM483.552 68.8843C481.69 70.9159 480.338 73.2858 479.495 75.9817L481.404 76.5783C482.162 74.1542 483.369 72.0441 485.027 70.2357L483.552 68.8843ZM479.45 76.28V113H481.45V76.28H479.45ZM480.45 112H464.37V114H480.45V112ZM465.37 113V50.12H463.37V113H465.37ZM464.37 51.12H478.89V49.12H464.37V51.12ZM477.89 50.12V61.76H479.89V50.12H477.89ZM479.75 62.2693C481.965 58.5263 485.178 55.5726 489.423 53.4112L488.516 51.6288C483.962 53.9474 480.454 57.1537 478.029 61.2507L479.75 62.2693ZM489.436 53.4046C493.677 51.1684 498.474 50.04 503.85 50.04V48.04C498.185 48.04 493.062 49.2316 488.503 51.6354L489.436 53.4046ZM503.85 50.04C507.655 50.04 510.666 50.74 512.947 52.0648L513.952 50.3352C511.273 48.78 507.884 48.04 503.85 48.04V50.04ZM512.969 52.0768C515.29 53.3499 517.074 55.0989 518.34 57.333L520.08 56.347C518.626 53.7811 516.569 51.7701 513.93 50.3232L512.969 52.0768ZM518.347 57.3457C519.638 59.5476 520.52 62.068 520.982 64.9201L522.957 64.5999C522.459 61.532 521.502 58.7724 520.072 56.3343L518.347 57.3457ZM520.987 64.9459C521.535 67.844 521.81 70.7818 521.81 73.76H523.81C523.81 70.6582 523.524 67.596 522.952 64.5741L520.987 64.9459ZM521.81 73.76V113H523.81V73.76H521.81ZM546.631 109.04L546.07 109.867L546.07 109.867L546.631 109.04ZM536.671 97.52L535.774 97.9613L535.777 97.9672L536.671 97.52ZM536.791 65.12L537.683 65.5731L537.686 65.5672L536.791 65.12ZM547.111 53.36L547.659 54.1967L547.659 54.1967L547.111 53.36ZM575.191 52.4L574.671 53.2542L574.678 53.2584L574.685 53.2624L575.191 52.4ZM584.311 61.16L583.474 61.7063L585.311 64.5239V61.16H584.311ZM584.311 50.12V49.12H583.311V50.12H584.311ZM598.351 50.12H599.351V49.12H598.351V50.12ZM593.791 125.96L592.969 125.392L592.963 125.4L592.957 125.409L593.791 125.96ZM581.431 136.16L581.029 135.244L581.018 135.25L581.431 136.16ZM546.031 136.28L546.473 135.383L546.466 135.379L546.031 136.28ZM534.031 126.68L533.334 125.963L532.681 126.599L533.253 127.308L534.031 126.68ZM542.791 118.16L543.568 117.53L542.879 116.68L542.094 117.443L542.791 118.16ZM551.791 125.12L551.369 126.026L551.376 126.03L551.791 125.12ZM572.671 125.72L572.287 124.797L572.271 124.803L572.256 124.811L572.671 125.72ZM579.631 119.96L578.807 119.393L578.803 119.399L578.799 119.405L579.631 119.96ZM582.271 102.08H583.271V98.3503L581.406 101.58L582.271 102.08ZM573.391 110.48L573.846 111.371L573.853 111.367L573.391 110.48ZM576.271 97.4L575.686 96.5892L575.675 96.5973L576.271 97.4ZM582.271 89.96L583.203 90.3224L583.271 90.1476V89.96H582.271ZM582.271 74.96H583.271V74.7713L583.203 74.5956L582.271 74.96ZM575.431 66.08L574.838 66.8851L574.848 66.8923L575.431 66.08ZM557.191 65.48L556.596 64.6769L556.589 64.6816L556.583 64.6864L557.191 65.48ZM551.551 72.68L552.456 73.107L552.46 73.0975L551.551 72.68ZM551.791 91.4L550.913 91.8771L550.913 91.8771L551.791 91.4ZM557.911 98.12L557.363 98.956L557.378 98.9659L557.393 98.9752L557.911 98.12ZM561.391 112.36C555.972 112.36 551.252 110.97 547.193 108.213L546.07 109.867C550.491 112.87 555.61 114.36 561.391 114.36V112.36ZM547.193 108.213C543.102 105.434 539.893 101.727 537.566 97.0728L535.777 97.9672C538.25 102.913 541.681 106.886 546.07 109.867L547.193 108.213ZM537.569 97.0787C535.24 92.3441 534.071 87.1763 534.071 81.56H532.071C532.071 87.4637 533.303 92.9359 535.774 97.9613L537.569 97.0787ZM534.071 81.56C534.071 75.6198 535.282 70.2977 537.683 65.573L535.9 64.6669C533.341 69.7023 532.071 75.3402 532.071 81.56H534.071ZM537.686 65.5672C540.091 60.7565 543.415 56.9745 547.659 54.1967L546.564 52.5233C542.008 55.5055 538.452 59.5635 535.897 64.6728L537.686 65.5672ZM547.659 54.1967C551.881 51.4333 556.767 50.04 562.351 50.04V48.04C556.416 48.04 551.142 49.5266 546.564 52.5233L547.659 54.1967ZM562.351 50.04C567.073 50.04 571.168 51.1217 574.671 53.2542L575.711 51.5458C571.855 49.1983 567.39 48.04 562.351 48.04V50.04ZM574.685 53.2624C578.228 55.3417 581.156 58.1519 583.474 61.7063L585.149 60.6137C582.667 56.8081 579.515 53.7783 575.698 51.5376L574.685 53.2624ZM585.311 61.16V50.12H583.311V61.16H585.311ZM584.311 51.12H598.351V49.12H584.311V51.12ZM597.351 50.12V110H599.351V50.12H597.351ZM597.351 110C597.351 116.072 595.875 121.185 592.969 125.392L594.614 126.528C597.788 121.935 599.351 116.408 599.351 110H597.351ZM592.957 125.409C590.111 129.716 586.147 132.996 581.029 135.244L581.834 137.076C587.276 134.684 591.552 131.164 594.626 126.511L592.957 125.409ZM581.018 135.25C575.887 137.582 570.031 138.76 563.431 138.76V140.76C570.272 140.76 576.416 139.538 581.845 137.07L581.018 135.25ZM563.431 138.76C556.659 138.76 551.02 137.618 546.473 135.383L545.59 137.177C550.483 139.582 556.444 140.76 563.431 140.76V138.76ZM546.466 135.379C541.964 133.206 538.08 130.101 534.809 126.052L533.253 127.308C536.703 131.579 540.818 134.874 545.597 137.181L546.466 135.379ZM534.729 127.397L543.489 118.877L542.094 117.443L533.334 125.963L534.729 127.397ZM542.015 118.79C544.514 121.873 547.637 124.285 551.369 126.026L552.214 124.214C548.746 122.595 545.869 120.367 543.568 117.53L542.015 118.79ZM551.376 126.03C555.188 127.77 559.209 128.64 563.431 128.64V126.64C559.493 126.64 555.755 125.83 552.207 124.21L551.376 126.03ZM563.431 128.64C566.922 128.64 570.145 127.974 573.087 126.629L572.256 124.811C569.598 126.026 566.661 126.64 563.431 126.64V128.64ZM573.056 126.643C576.122 125.366 578.596 123.316 580.463 120.515L578.799 119.405C577.147 121.884 574.981 123.674 572.287 124.797L573.056 126.643ZM580.455 120.527C582.361 117.755 583.271 114.22 583.271 110H581.271C581.271 113.94 580.422 117.045 578.807 119.393L580.455 120.527ZM583.271 110V102.08H581.271V110H583.271ZM581.406 101.58C579.425 105.008 576.608 107.677 572.93 109.593L573.853 111.367C577.855 109.283 580.958 106.352 583.137 102.58L581.406 101.58ZM572.937 109.589C569.318 111.437 565.474 112.36 561.391 112.36V114.36C565.789 114.36 569.945 113.363 573.846 111.371L572.937 109.589ZM566.791 101.52C570.524 101.52 573.894 100.412 576.868 98.2027L575.675 96.5973C573.049 98.5479 570.099 99.52 566.791 99.52V101.52ZM576.857 98.2107C579.869 96.0351 582.004 93.4079 583.203 90.3224L581.339 89.5976C580.299 92.2721 578.434 94.6049 575.686 96.5893L576.857 98.2107ZM583.271 89.96V74.96H581.271V89.96H583.271ZM583.203 74.5956C581.694 70.7413 579.296 67.6236 576.015 65.2677L574.848 66.8923C577.807 69.0163 579.968 71.8187 581.34 75.3244L583.203 74.5956ZM576.025 65.2749C572.835 62.9247 569.431 61.72 565.831 61.72V63.72C568.952 63.72 571.948 64.7553 574.838 66.8851L576.025 65.2749ZM565.831 61.72C562.351 61.72 559.259 62.7008 556.596 64.6769L557.787 66.2831C560.084 64.5792 562.752 63.72 565.831 63.72V61.72ZM556.583 64.6864C554.044 66.633 552.065 69.1663 550.643 72.2625L552.46 73.0975C553.758 70.2737 555.539 68.007 557.8 66.2736L556.583 64.6864ZM550.647 72.253C549.221 75.2738 548.511 78.5406 548.511 82.04H550.511C550.511 78.8194 551.162 75.8462 552.456 73.107L550.647 72.253ZM548.511 82.04C548.511 85.633 549.307 88.9191 550.913 91.8771L552.67 90.9229C551.236 88.2809 550.511 85.327 550.511 82.04H548.511ZM550.913 91.8771C552.508 94.8161 554.659 97.1818 557.363 98.956L558.46 97.284C556.044 95.6982 554.115 93.5839 552.67 90.9229L550.913 91.8771ZM557.393 98.9752C560.199 100.676 563.341 101.52 566.791 101.52V99.52C563.682 99.52 560.904 98.7641 558.43 97.2648L557.393 98.9752ZM620.646 111.56L620.307 112.501L620.307 112.501L620.646 111.56ZM608.046 103.76L607.171 103.277L606.803 103.943L607.347 104.475L608.046 103.76ZM613.806 93.32L614.435 92.5424L613.507 91.7922L612.931 92.8369L613.806 93.32ZM624.846 100.04L625.218 99.1115L625.218 99.1115L624.846 100.04ZM642.846 100.52L642.342 99.6562L642.334 99.6609L642.326 99.6658L642.846 100.52ZM642.246 90.8L641.891 91.735L641.906 91.7404L641.92 91.7454L642.246 90.8ZM632.526 87.56L632.23 88.5151L632.232 88.5158L632.526 87.56ZM620.886 83.12L621.324 82.221L621.324 82.221L620.886 83.12ZM613.806 77.6L612.988 78.1755L612.995 78.1854L613.003 78.1952L613.806 77.6ZM618.486 54.44L617.865 53.6565L617.865 53.6565L618.486 54.44ZM649.686 51.08L649.347 52.0209L649.356 52.0239L649.364 52.0268L649.686 51.08ZM660.606 57.8L661.45 58.3362L661.891 57.6422L661.295 57.0754L660.606 57.8ZM654.126 68L653.511 68.7888L654.38 69.4655L654.97 68.5362L654.126 68ZM629.406 62.24L628.973 61.3385L628.966 61.342L628.959 61.3456L629.406 62.24ZM629.286 72.08L628.824 72.9666L628.831 72.9706L628.839 72.9744L629.286 72.08ZM637.926 75.2L638.219 74.2438L638.206 74.24L637.926 75.2ZM650.526 79.64L650.14 80.5625L650.147 80.5655L650.526 79.64ZM658.446 85.16L657.66 85.7778L657.667 85.7864L657.673 85.7947L658.446 85.16ZM654.366 108.92L653.755 108.128L653.755 108.128L654.366 108.92ZM636.006 113.2C630.758 113.2 625.753 112.339 620.985 110.619L620.307 112.501C625.299 114.301 630.534 115.2 636.006 115.2V113.2ZM620.985 110.619C616.233 108.905 612.157 106.379 608.745 103.045L607.347 104.475C610.975 108.021 615.3 110.695 620.307 112.501L620.985 110.619ZM608.922 104.243L614.682 93.8031L612.931 92.8369L607.171 103.277L608.922 104.243ZM613.177 94.0976C616.997 97.1857 620.762 99.4835 624.475 100.968L625.218 99.1115C621.73 97.7165 618.135 95.5343 614.435 92.5424L613.177 94.0976ZM624.475 100.968C628.178 102.45 631.824 103.2 635.406 103.2V101.2C632.109 101.2 628.714 100.51 625.218 99.1115L624.475 100.968ZM635.406 103.2C638.632 103.2 641.314 102.623 643.366 101.374L642.326 99.6658C640.698 100.657 638.42 101.2 635.406 101.2V103.2ZM643.35 101.384C645.58 100.083 646.726 98.0723 646.726 95.48H644.726C644.726 97.3677 643.952 98.7171 642.342 99.6562L643.35 101.384ZM646.726 95.48C646.726 94.1478 646.39 92.9572 645.659 91.9733C644.93 90.994 643.872 90.303 642.572 89.8546L641.92 91.7454C642.94 92.097 643.622 92.586 644.054 93.1667C644.482 93.7428 644.726 94.4922 644.726 95.48H646.726ZM642.601 89.865C640.251 88.9738 636.988 87.8866 632.82 86.6042L632.232 88.5158C636.384 89.7934 639.601 90.8662 641.891 91.735L642.601 89.865ZM632.823 86.6049C628.213 85.1745 624.384 83.7119 621.324 82.221L620.448 84.019C623.628 85.5681 627.559 87.0655 632.23 88.5151L632.823 86.6049ZM621.324 82.221C618.308 80.7515 616.09 79.0035 614.61 77.0048L613.003 78.1952C614.722 80.5165 617.224 82.4485 620.448 84.019L621.324 82.221ZM614.624 77.0245C613.254 75.0774 612.526 72.4959 612.526 69.2H610.526C610.526 72.7841 611.319 75.8026 612.988 78.1755L614.624 77.0245ZM612.526 69.2C612.526 63.331 614.718 58.7051 619.108 55.2235L617.865 53.6565C612.975 57.5349 610.526 62.749 610.526 69.2H612.526ZM619.108 55.2235C623.524 51.7206 629.444 49.92 636.966 49.92V47.92C629.128 47.92 622.728 49.7994 617.865 53.6565L619.108 55.2235ZM636.966 49.92C641.337 49.92 645.462 50.6221 649.347 52.0209L650.025 50.1391C645.91 48.6579 641.555 47.92 636.966 47.92V49.92ZM649.364 52.0268C653.218 53.3369 656.734 55.4971 659.917 58.5246L661.295 57.0754C657.918 53.8629 654.155 51.5431 650.008 50.1332L649.364 52.0268ZM659.762 57.2638L653.282 67.4638L654.97 68.5362L661.45 58.3362L659.762 57.2638ZM654.741 67.2112C648.467 62.3226 642.296 59.8 636.246 59.8V61.8C641.716 61.8 647.465 64.0774 653.511 68.7888L654.741 67.2112ZM636.246 59.8C633.559 59.8 631.128 60.3044 628.973 61.3385L629.839 63.1415C631.684 62.2556 633.813 61.8 636.246 61.8V59.8ZM628.959 61.3456C627.842 61.9038 626.966 62.6939 626.378 63.7239C625.793 64.7472 625.526 65.9474 625.526 67.28H627.526C627.526 66.2126 627.739 65.3728 628.114 64.7161C628.486 64.066 629.05 63.5362 629.853 63.1344L628.959 61.3456ZM625.526 67.28C625.526 68.5377 625.785 69.6775 626.349 70.6585C626.916 71.6437 627.756 72.4097 628.824 72.9666L629.749 71.1934C628.976 70.7903 628.437 70.2763 628.083 69.6615C627.727 69.0425 627.526 68.2623 627.526 67.28H625.526ZM628.839 72.9744C630.84 73.9751 633.789 75.0349 637.646 76.16L638.206 74.24C634.384 73.1251 631.572 72.1049 629.733 71.1856L628.839 72.9744ZM637.633 76.1561C642.573 77.6699 646.74 79.139 650.14 80.5624L650.912 78.7176C647.433 77.261 643.2 75.7701 638.219 74.2439L637.633 76.1561ZM650.147 80.5655C653.559 81.9612 656.037 83.7121 657.66 85.7778L659.232 84.5422C657.336 82.1279 654.533 80.1988 650.905 78.7144L650.147 80.5655ZM657.673 85.7947C659.325 87.805 660.206 90.5958 660.206 94.28H662.206C662.206 90.2842 661.248 86.995 659.219 84.5253L657.673 85.7947ZM660.206 94.28C660.206 100.24 658.047 104.815 653.755 108.128L654.977 109.712C659.805 105.985 662.206 100.8 662.206 94.28H660.206ZM653.755 108.128C649.42 111.474 643.538 113.2 636.006 113.2V115.2C643.834 115.2 650.192 113.406 654.977 109.712L653.755 108.128Z" fill="black"/>
<path d="M47.9649 84.68L47.7837 83.6965L47.8056 85.6672L47.9649 84.68ZM59.9649 91.88L59.1687 92.4851L59.1755 92.494L59.1825 92.5027L59.9649 91.88ZM60.8049 119.12L61.6258 119.691L61.6258 119.691L60.8049 119.12ZM49.8849 127.64L49.4947 126.719L49.489 126.722L49.8849 127.64ZM5.60487 119.12L4.824 118.495L4.31392 119.133L4.83665 119.76L5.60487 119.12ZM14.7249 107.72L15.5104 107.101L14.7309 106.112L13.944 107.095L14.7249 107.72ZM22.1649 113.84L21.7176 114.734L21.7274 114.739L22.1649 113.84ZM44.1249 113L43.5249 112.2L43.517 112.206L43.5092 112.212L44.1249 113ZM43.5249 94.64L44.1283 93.8426L44.1283 93.8426L43.5249 94.64ZM26.7249 91.28H25.7249V92.28H26.7249V91.28ZM26.7249 79.28V78.28H25.7249V79.28H26.7249ZM41.8449 76.04L42.4668 76.8231L42.4696 76.8209L41.8449 76.04ZM42.6849 60.32L42.0849 61.12L42.0942 61.127L42.1036 61.1337L42.6849 60.32ZM16.8849 67.4L16.1392 68.0663L17.0353 69.069L17.7376 67.9223L16.8849 67.4ZM6.80487 56.12L5.98564 55.5465L5.53131 56.1956L6.05922 56.7863L6.80487 56.12ZM13.6449 49.76L13.1169 48.9106L13.1065 48.9173L13.6449 49.76ZM23.7249 45.44L23.4635 44.4748L23.4583 44.4762L23.7249 45.44ZM50.0049 46.52L49.6088 47.4382L49.6152 47.441L50.0049 46.52ZM59.7249 53.96L60.5345 53.373L60.5345 53.373L59.7249 53.96ZM61.2849 74.12L62.1897 74.5458L62.1943 74.5358L61.2849 74.12ZM55.8849 81.08L56.5196 81.8527L56.5224 81.8504L55.8849 81.08ZM47.8056 85.6672C52.5121 86.4264 56.2841 88.6895 59.1687 92.4851L60.761 91.2749C57.5657 87.0705 53.3376 84.5336 48.1241 83.6928L47.8056 85.6672ZM59.1825 92.5027C62.1471 96.2275 63.6449 100.722 63.6449 106.04H65.6449C65.6449 100.318 64.0227 95.3725 60.7473 91.2573L59.1825 92.5027ZM63.6449 106.04C63.6449 110.902 62.4132 115.057 59.984 118.549L61.6258 119.691C64.3166 115.823 65.6449 111.258 65.6449 106.04H63.6449ZM59.984 118.549C57.5465 122.053 54.0666 124.782 49.4947 126.719L50.275 128.561C55.1432 126.498 58.9432 123.547 61.6258 119.691L59.984 118.549ZM49.489 126.722C45.0012 128.656 39.6618 129.64 33.4449 129.64V131.64C39.868 131.64 45.4886 130.624 50.2807 128.558L49.489 126.722ZM33.4449 129.64C21.5111 129.64 12.5422 125.883 6.37309 118.48L4.83665 119.76C11.4676 127.717 21.0586 131.64 33.4449 131.64V129.64ZM6.38574 119.745L15.5057 108.345L13.944 107.095L4.824 118.495L6.38574 119.745ZM13.9394 108.339C16.1064 111.089 18.7002 113.226 21.7177 114.734L22.6121 112.946C19.8695 111.574 17.5034 109.631 15.5104 107.101L13.9394 108.339ZM21.7274 114.739C24.8571 116.262 28.6155 117 32.9649 117V115C28.8343 115 25.3926 114.298 22.6023 112.941L21.7274 114.739ZM32.9649 117C37.961 117 41.9358 115.979 44.7405 113.788L43.5092 112.212C41.194 114.021 37.7287 115 32.9649 115V117ZM44.7249 113.8C47.5939 111.648 48.9649 108.396 48.9649 104.24H46.9649C46.9649 107.924 45.7759 110.512 43.5249 112.2L44.7249 113.8ZM48.9649 104.24C48.9649 99.8101 47.3707 96.2963 44.1283 93.8426L42.9214 95.4374C45.599 97.4637 46.9649 100.35 46.9649 104.24H48.9649ZM44.1283 93.8426C40.9166 91.4121 36.1788 90.28 30.0849 90.28V92.28C35.991 92.28 40.2132 93.3879 42.9214 95.4374L44.1283 93.8426ZM30.0849 90.28H26.7249V92.28H30.0849V90.28ZM27.7249 91.28V79.28H25.7249V91.28H27.7249ZM26.7249 80.28H30.4449V78.28H26.7249V80.28ZM30.4449 80.28C35.461 80.28 39.5105 79.1707 42.4668 76.8231L41.223 75.2569C38.7392 77.2293 35.1888 78.28 30.4449 78.28V80.28ZM42.4696 76.8209C45.4951 74.4004 47.0449 71.2784 47.0449 67.52H45.0449C45.0449 70.6416 43.7946 73.1996 41.2202 75.2591L42.4696 76.8209ZM47.0449 67.52C47.0449 64.0572 45.8143 61.3264 43.2661 59.5063L42.1036 61.1337C44.0355 62.5136 45.0449 64.5828 45.0449 67.52H47.0449ZM43.2849 59.52C40.8279 57.6773 37.6791 56.8 33.9249 56.8V58.8C37.3707 58.8 40.0619 59.6027 42.0849 61.12L43.2849 59.52ZM33.9249 56.8C26.1331 56.8 20.1319 60.1841 16.0321 66.8777L17.7376 67.9223C21.4778 61.8159 26.8366 58.8 33.9249 58.8V56.8ZM17.6305 66.7337L7.55053 55.4537L6.05922 56.7863L16.1392 68.0663L17.6305 66.7337ZM7.6241 56.6935C9.21759 54.4171 11.3955 52.3838 14.1833 50.6027L13.1065 48.9173C10.1343 50.8162 7.75216 53.0229 5.98564 55.5465L7.6241 56.6935ZM14.1728 50.6093C17.0426 48.8254 20.3128 47.4213 23.9915 46.4038L23.4583 44.4762C19.617 45.5387 16.1672 47.0146 13.1169 48.9107L14.1728 50.6093ZM23.9863 46.4052C27.7373 45.3893 31.6491 44.88 35.7249 44.88V42.88C31.4806 42.88 27.3925 43.4107 23.4635 44.4748L23.9863 46.4052ZM35.7249 44.88C41.0584 44.88 45.6786 45.7428 49.6088 47.4382L50.401 45.6018C46.1712 43.7772 41.2713 42.88 35.7249 42.88V44.88ZM49.6152 47.441C53.6319 49.1403 56.7168 51.5146 58.9153 54.547L60.5345 53.373C58.093 50.0054 54.6979 47.4197 50.3945 45.599L49.6152 47.441ZM58.9153 54.547C61.1023 57.5636 62.2049 61.0746 62.2049 65.12H64.2049C64.2049 60.6854 62.9874 56.7564 60.5345 53.373L58.9153 54.547ZM62.2049 65.12C62.2049 68.1823 61.5934 71.0399 60.3754 73.7042L62.1943 74.5358C63.5364 71.6001 64.2049 68.4577 64.2049 65.12H62.2049ZM60.3801 73.6942C59.1628 76.2808 57.4542 78.4832 55.2473 80.3096L56.5224 81.8504C58.9556 79.8368 60.8469 77.3992 62.1897 74.5458L60.3801 73.6942ZM55.2501 80.3073C53.1497 82.0326 50.6685 83.1651 47.7837 83.6965L48.146 85.6635C51.3412 85.0749 54.14 83.8074 56.5196 81.8527L55.2501 80.3073ZM132.879 96.68L131.982 96.238L131.979 96.2434L132.879 96.68ZM121.839 109.52L121.287 108.686L121.281 108.69L121.839 109.52ZM90.0389 109.52L89.4809 110.35L89.4875 110.354L90.0389 109.52ZM78.9989 96.68L78.0968 97.1115L78.1006 97.1194L78.1045 97.1272L78.9989 96.68ZM78.9989 59.12L78.1019 58.678L78.0993 58.6834L78.9989 59.12ZM90.0389 46.16L90.5969 46.9898L90.6001 46.9877L90.0389 46.16ZM121.839 46.16L121.271 46.9832L121.279 46.9888L121.288 46.9942L121.839 46.16ZM132.879 59.12L131.977 59.5515L131.981 59.5594L131.985 59.5672L132.879 59.12ZM116.559 62.24L115.727 62.7947L115.733 62.8042L115.74 62.8135L116.559 62.24ZM95.1989 62.24L96.0259 62.8023L96.031 62.7947L95.1989 62.24ZM95.1989 93.44L94.372 94.0023L94.372 94.0023L95.1989 93.44ZM116.559 93.44L115.74 92.8665L115.732 92.8777L116.559 93.44ZM135.959 77.84C135.959 84.7489 134.625 90.8741 131.982 96.238L133.776 97.122C136.573 91.4459 137.959 85.0111 137.959 77.84H135.959ZM131.979 96.2434C129.412 101.534 125.848 105.672 121.288 108.686L122.39 110.354C127.27 107.128 131.066 102.706 133.779 97.1166L131.979 96.2434ZM121.281 108.69C116.816 111.693 111.732 113.2 105.999 113.2V115.2C112.105 115.2 117.582 113.587 122.397 110.35L121.281 108.69ZM105.999 113.2C100.265 113.2 95.139 111.692 90.5904 108.686L89.4875 110.354C94.3789 113.588 99.8924 115.2 105.999 115.2V113.2ZM90.5969 108.69C86.1126 105.675 82.5431 101.532 79.8934 96.2328L78.1045 97.1272C80.8948 102.708 84.6852 107.125 89.4809 110.35L90.5969 108.69ZM79.9011 96.2485C77.3345 90.8821 76.0389 84.7531 76.0389 77.84H74.0389C74.0389 85.0069 75.3833 91.4378 78.0968 97.1115L79.9011 96.2485ZM76.0389 77.84C76.0389 70.9265 77.3346 64.8399 79.8986 59.5566L78.0993 58.6834C75.3832 64.2801 74.0389 70.6735 74.0389 77.84H76.0389ZM79.8959 59.562C82.5467 54.1825 86.1161 50.0028 90.5969 46.9898L89.4809 45.3302C84.6817 48.5572 80.8912 53.0175 78.1019 58.678L79.8959 59.562ZM90.6001 46.9877C95.1479 43.9044 100.271 42.36 105.999 42.36V40.36C99.8869 40.36 94.37 42.0156 89.4778 45.3323L90.6001 46.9877ZM105.999 42.36C111.727 42.36 116.807 43.9043 121.271 46.9832L122.407 45.3368C117.591 42.0157 112.111 40.36 105.999 40.36V42.36ZM121.288 46.9942C125.844 50.0061 129.408 54.1812 131.977 59.5515L133.781 58.6885C131.069 53.0188 127.274 48.5539 122.39 45.3258L121.288 46.9942ZM131.985 59.5672C134.625 64.848 135.959 70.9308 135.959 77.84H137.959C137.959 70.6692 136.573 64.272 133.773 58.6728L131.985 59.5672ZM121.759 77.84C121.759 71.298 120.328 65.8799 117.378 61.6665L115.74 62.8135C118.39 66.6001 119.759 71.582 119.759 77.84H121.759ZM117.391 61.6853C114.515 57.371 110.703 55.12 105.999 55.12V57.12C109.935 57.12 113.163 58.949 115.727 62.7947L117.391 61.6853ZM105.999 55.12C101.149 55.12 97.2516 57.3582 94.3669 61.6853L96.031 62.7947C98.5862 58.9618 101.889 57.12 105.999 57.12V55.12ZM94.372 61.6777C91.508 65.8894 90.1189 71.3033 90.1189 77.84H92.1189C92.1189 71.5767 93.4499 66.5906 96.0259 62.8023L94.372 61.6777ZM90.1189 77.84C90.1189 84.3767 91.508 89.7906 94.372 94.0023L96.0259 92.8777C93.4499 89.0894 92.1189 84.1033 92.1189 77.84H90.1189ZM94.372 94.0023C97.2607 98.2503 101.158 100.44 105.999 100.44V98.44C101.88 98.44 98.5772 96.6297 96.0259 92.8777L94.372 94.0023ZM105.999 100.44C110.694 100.44 114.506 98.2378 117.386 94.0023L115.732 92.8777C113.172 96.6422 109.944 98.44 105.999 98.44V100.44ZM117.378 94.0135C120.328 89.8001 121.759 84.382 121.759 77.84H119.759C119.759 84.098 118.39 89.0799 115.74 92.8665L117.378 94.0135ZM231.338 50.12L230.595 50.789L231.54 51.8395L232.216 50.5983L231.338 50.12ZM226.778 47L226.272 47.8627L226.284 47.8693L226.295 47.8756L226.778 47ZM218.378 43.4L218.048 44.3439L218.062 44.3487L218.076 44.3532L218.378 43.4ZM203.498 60.32L203.182 61.2687L203.182 61.2687L203.498 60.32ZM214.298 63.44L214.047 64.408L214.049 64.4085L214.298 63.44ZM228.818 68.48L228.392 69.3848L228.399 69.388L228.818 68.48ZM238.298 76.16L237.469 76.7195L237.477 76.7315L237.486 76.7432L238.298 76.16ZM237.218 103.4L236.432 102.781L236.43 102.784L237.218 103.4ZM225.698 111.44L225.368 110.496L225.368 110.496L225.698 111.44ZM191.018 111.08L190.713 112.032L190.72 112.035L190.727 112.037L191.018 111.08ZM174.338 102.92L173.448 102.464L173.052 103.237L173.762 103.737L174.338 102.92ZM181.658 88.64L182.365 87.9329L181.394 86.9621L180.768 88.1838L181.658 88.64ZM185.498 91.52L184.952 92.3576L184.965 92.3661L184.978 92.3742L185.498 91.52ZM192.218 95L191.804 95.9104L191.816 95.9156L191.827 95.9206L192.218 95ZM200.858 97.88L200.61 98.8487L200.61 98.8487L200.858 97.88ZM221.258 84.32L220.621 85.091L220.621 85.091L221.258 84.32ZM213.458 80.48L213.156 81.4332L213.162 81.4353L213.458 80.48ZM201.938 77L202.217 76.0397L202.207 76.0369L201.938 77ZM188.378 71.96L187.899 72.8379L187.911 72.8443L187.923 72.8504L188.378 71.96ZM180.458 64.88L179.605 65.4015L179.611 65.4122L180.458 64.88ZM181.898 39.32L181.079 38.7465L181.076 38.7499L181.898 39.32ZM193.178 30.32L193.568 31.2408L193.575 31.238L193.581 31.2351L193.178 30.32ZM238.658 36.68L239.536 37.1583L239.971 36.3592L239.217 35.8507L238.658 36.68ZM232.081 49.451C231.236 48.5118 229.577 47.4022 227.261 46.1244L226.295 47.8756C228.619 49.1578 230 50.1281 230.595 50.789L232.081 49.451ZM227.284 46.1373C224.885 44.7309 222.013 43.5034 218.68 42.4468L218.076 44.3532C221.303 45.3766 224.031 46.5491 226.272 47.8627L227.284 46.1373ZM218.708 42.4561C215.401 41.2984 211.969 40.72 208.418 40.72V42.72C211.747 42.72 214.955 43.2616 218.048 44.3439L218.708 42.4561ZM208.418 40.72C203.81 40.72 200.176 41.53 197.67 43.3038C195.101 45.1225 193.858 47.8536 193.858 51.32H195.858C195.858 48.3864 196.875 46.3175 198.826 44.9362C200.84 43.51 203.986 42.72 208.418 42.72V40.72ZM193.858 51.32C193.858 53.8638 194.657 55.9856 196.331 57.567L197.705 56.113C196.499 54.9744 195.858 53.4162 195.858 51.32H193.858ZM196.331 57.567C197.918 59.0659 200.23 60.2848 203.182 61.2687L203.814 59.3713C201.006 58.4352 198.998 57.334 197.705 56.113L196.331 57.567ZM203.182 61.2687C206.091 62.2383 209.714 63.2847 214.047 64.408L214.549 62.472C210.242 61.3553 206.665 60.3217 203.814 59.3713L203.182 61.2687ZM214.049 64.4085C219.604 65.837 224.382 67.4978 228.392 69.3848L229.244 67.5752C225.094 65.6222 220.192 63.923 214.547 62.4715L214.049 64.4085ZM228.399 69.388C232.424 71.2458 235.429 73.6971 237.469 76.7195L239.127 75.6005C236.847 72.2229 233.532 69.5542 229.237 67.572L228.399 69.388ZM237.486 76.7432C239.567 79.6424 240.658 83.5765 240.658 88.64H242.658C242.658 83.3035 241.509 78.9176 239.11 75.5768L237.486 76.7432ZM240.658 88.64C240.658 94.5573 239.22 99.2407 236.432 102.781L238.004 104.019C241.136 100.039 242.658 94.8827 242.658 88.64H240.658ZM236.43 102.784C233.679 106.3 230.004 108.874 225.368 110.496L226.028 112.384C230.992 110.646 234.997 107.86 238.006 104.016L236.43 102.784ZM225.368 110.496C220.684 112.135 215.597 112.96 210.098 112.96V114.96C215.799 114.96 221.112 114.105 226.028 112.384L225.368 110.496ZM210.098 112.96C203.8 112.96 197.537 112.015 191.309 110.123L190.727 112.037C197.139 113.985 203.596 114.96 210.098 114.96V112.96ZM191.323 110.128C185.171 108.156 179.704 105.479 174.914 102.103L173.762 103.737C178.732 107.241 184.385 110.004 190.713 112.032L191.323 110.128ZM175.228 103.376L182.548 89.0962L180.768 88.1838L173.448 102.464L175.228 103.376ZM180.951 89.3471C181.749 90.1456 183.104 91.1528 184.952 92.3576L186.044 90.6824C184.212 89.4872 183.007 88.5744 182.365 87.9329L180.951 89.3471ZM184.978 92.3742C186.862 93.5207 189.139 94.6991 191.804 95.9104L192.632 94.0896C190.017 92.9009 187.814 91.7593 186.018 90.6658L184.978 92.3742ZM191.827 95.9206C194.519 97.0624 197.447 98.0377 200.61 98.8487L201.106 96.9113C198.029 96.1223 195.197 95.1776 192.609 94.0794L191.827 95.9206ZM200.61 98.8487C203.81 99.6693 207.054 100.08 210.338 100.08V98.08C207.222 98.08 204.146 97.6907 201.106 96.9113L200.61 98.8487ZM210.338 100.08C214.973 100.08 218.62 99.3439 221.137 97.7321C223.73 96.0717 225.018 93.5489 225.018 90.32H223.018C223.018 92.9311 222.026 94.7883 220.059 96.0479C218.016 97.3561 214.823 98.08 210.338 98.08V100.08ZM225.018 90.32C225.018 87.5552 223.975 85.2674 221.895 83.549L220.621 85.091C222.221 86.4126 223.018 88.1248 223.018 90.32H225.018ZM221.895 83.549C219.918 81.9163 217.185 80.5866 213.754 79.5247L213.162 81.4353C216.451 82.4534 218.918 83.6837 220.621 85.091L221.895 83.549ZM213.76 79.5268C210.471 78.4837 206.623 77.3214 202.217 76.0398L201.659 77.9602C206.053 79.2386 209.885 80.3963 213.156 81.4332L213.76 79.5268ZM202.207 76.0369C196.808 74.5284 192.355 72.8699 188.833 71.0696L187.923 72.8504C191.601 74.7301 196.188 76.4316 201.669 77.9631L202.207 76.0369ZM188.857 71.0821C185.455 69.2267 182.956 66.9752 181.305 64.3478L179.611 65.4122C181.48 68.3848 184.261 70.8533 187.899 72.8379L188.857 71.0821ZM181.311 64.3585C179.672 61.6765 178.818 58.2307 178.818 53.96H176.818C176.818 58.4893 177.724 62.3235 179.605 65.4014L181.311 64.3585ZM178.818 53.96C178.818 48.2775 180.14 43.6083 182.72 39.8901L181.076 38.7499C178.216 42.8717 176.818 47.9625 176.818 53.96H178.818ZM182.717 39.8935C185.404 36.055 189.012 33.1714 193.568 31.2408L192.788 29.3992C187.904 31.4686 183.992 34.585 181.079 38.7465L182.717 39.8935ZM193.581 31.2351C198.16 29.2173 203.261 28.2 208.898 28.2V26.2C203.015 26.2 197.636 27.2627 192.775 29.4049L193.581 31.2351ZM208.898 28.2C214.708 28.2 220.108 29.1418 225.107 31.0163L225.809 29.1437C220.568 27.1782 214.928 26.2 208.898 26.2V28.2ZM225.107 31.0163C230.17 32.9149 234.497 35.0816 238.099 37.5093L239.217 35.8507C235.459 33.3183 230.986 31.085 225.809 29.1437L225.107 31.0163ZM237.78 36.2017L230.46 49.6417L232.216 50.5983L239.536 37.1583L237.78 36.2017ZM264.132 109.76L263.613 110.615L263.619 110.619L264.132 109.76ZM252.732 98L251.855 98.4808L251.858 98.4869L252.732 98ZM252.612 65.6L251.732 65.1251L251.729 65.1301L252.612 65.6ZM264.132 53.6L264.644 54.4588L264.654 54.4526L264.132 53.6ZM299.532 53.6L299.003 54.4488L299.013 54.455L299.532 53.6ZM310.692 65.48L309.803 65.9386L309.808 65.9473L309.812 65.9558L310.692 65.48ZM314.292 86.72V87.72H315.146L315.28 86.876L314.292 86.72ZM265.692 86.72V85.72H264.606L264.695 86.8017L265.692 86.72ZM271.092 98.24L270.433 98.9926L270.442 99.0006L271.092 98.24ZM291.372 100.16L291.849 101.039L291.857 101.034L291.372 100.16ZM297.252 93.92L297.52 92.9566L296.661 92.7176L296.325 93.5436L297.252 93.92ZM311.052 97.76L311.952 98.1952L312.473 97.1175L311.32 96.7966L311.052 97.76ZM299.892 109.64L300.402 110.5L300.412 110.494L299.892 109.64ZM265.332 76.52L264.335 76.4356L264.243 77.52H265.332V76.52ZM298.212 76.52V77.52H299.319L299.207 76.4188L298.212 76.52ZM292.812 65.12L292.114 65.8365L292.124 65.8458L292.133 65.8548L292.812 65.12ZM270.492 65.12L271.179 65.846L271.18 65.8455L270.492 65.12ZM281.772 113.2C275.12 113.2 269.424 111.754 264.644 108.901L263.619 110.619C268.76 113.686 274.824 115.2 281.772 115.2V113.2ZM264.65 108.905C259.915 106.033 256.239 102.238 253.605 97.5131L251.858 98.4869C254.665 103.522 258.588 107.567 263.613 110.615L264.65 108.905ZM253.609 97.5192C250.971 92.7093 249.652 87.5151 249.652 81.92H247.652C247.652 87.8449 249.053 93.3707 251.855 98.4808L253.609 97.5192ZM249.652 81.92C249.652 76.1548 250.936 70.8774 253.494 66.0698L251.729 65.1301C249.008 70.2426 247.652 75.8452 247.652 81.92H249.652ZM253.492 66.0749C256.125 61.1951 259.838 57.3271 264.644 54.4587L263.619 52.7413C258.506 55.7929 254.538 59.9249 251.732 65.1251L253.492 66.0749ZM264.654 54.4526C269.43 51.5253 275.162 50.04 281.892 50.04V48.04C274.861 48.04 268.753 49.5946 263.609 52.7474L264.654 54.4526ZM281.892 50.04C288.622 50.04 294.31 51.5255 299.003 54.4488L300.06 52.7512C294.993 49.5945 288.922 48.04 281.892 48.04V50.04ZM299.013 54.455C303.739 57.3217 307.33 61.1462 309.803 65.9386L311.58 65.0214C308.934 59.8938 305.084 55.7982 300.05 52.745L299.013 54.455ZM309.812 65.9558C312.371 70.6861 313.652 75.802 313.652 81.32H315.652C315.652 75.478 314.292 70.0339 311.571 65.0042L309.812 65.9558ZM313.652 81.32C313.652 83.3646 313.534 85.11 313.304 86.564L315.28 86.876C315.53 85.29 315.652 83.4354 315.652 81.32H313.652ZM314.292 85.72H265.692V87.72H314.292V85.72ZM264.695 86.8017C265.113 91.8984 267.008 95.9953 270.433 98.9926L271.75 97.4874C268.776 94.8847 267.071 91.3016 266.688 86.6383L264.695 86.8017ZM270.442 99.0006C273.9 101.952 277.889 103.44 282.372 103.44V101.44C278.374 101.44 274.843 100.128 271.741 97.4794L270.442 99.0006ZM282.372 103.44C285.738 103.44 288.902 102.639 291.849 101.039L290.895 99.2811C288.242 100.721 285.406 101.44 282.372 101.44V103.44ZM291.857 101.034C294.897 99.3455 297.037 97.1064 298.178 94.2964L296.325 93.5436C295.387 95.8536 293.607 97.7745 290.886 99.2858L291.857 101.034ZM296.984 94.8834L310.784 98.7234L311.32 96.7966L297.52 92.9566L296.984 94.8834ZM310.151 97.3248C307.925 101.931 304.348 105.753 299.371 108.786L300.412 110.494C305.675 107.287 309.538 103.189 311.952 98.1952L310.151 97.3248ZM299.381 108.78C294.44 111.714 288.583 113.2 281.772 113.2V115.2C288.881 115.2 295.103 113.646 300.402 110.5L299.381 108.78ZM265.332 77.52H298.212V75.52H265.332V77.52ZM299.207 76.4188C298.705 71.4867 296.811 67.4504 293.49 64.3852L292.133 65.8548C295.053 68.5496 296.758 72.1133 297.217 76.6212L299.207 76.4188ZM293.509 64.4035C290.275 61.2544 286.302 59.68 281.652 59.68V61.68C285.802 61.68 289.268 63.0656 292.114 65.8365L293.509 64.4035ZM281.652 59.68C277.077 59.68 273.11 61.2574 269.803 64.3945L271.18 65.8455C274.113 63.0626 277.587 61.68 281.652 61.68V59.68ZM269.804 64.394C266.562 67.4651 264.753 71.5054 264.335 76.4356L266.328 76.6044C266.71 72.0946 268.341 68.5349 271.179 65.846L269.804 64.394ZM336.088 109.64L336.61 108.787L336.61 108.787L336.088 109.64ZM324.568 97.64L325.444 97.1592L325.444 97.1592L324.568 97.64ZM324.448 65.36L323.571 64.8791L323.565 64.8901L324.448 65.36ZM335.968 53.48L336.48 54.3387L336.48 54.3387L335.968 53.48ZM371.128 53.48L370.603 54.3312L370.609 54.335L371.128 53.48ZM382.048 65.12L382.34 66.0764L383.471 65.7309L382.942 64.6728L382.048 65.12ZM366.328 69.92L365.464 70.4239L365.863 71.1075L366.62 70.8764L366.328 69.92ZM345.088 65.12L345.61 65.9726L345.62 65.9666L345.63 65.9603L345.088 65.12ZM339.208 71.72L340.097 72.1774L340.102 72.1672L339.208 71.72ZM339.208 91.4L338.313 91.8472L338.321 91.8623L338.329 91.8771L339.208 91.4ZM345.208 98.12L344.647 98.9479L344.656 98.9542L344.666 98.9603L345.208 98.12ZM361.408 98.48L361.901 99.3501L361.91 99.3448L361.408 98.48ZM366.568 93.08L366.86 92.1236L366.013 91.8651L365.654 92.6739L366.568 93.08ZM382.288 97.88L383.197 98.2961L383.672 97.2572L382.58 96.9236L382.288 97.88ZM371.488 109.64L372.01 110.493L372.014 110.49L371.488 109.64ZM353.728 113.2C347.081 113.2 341.388 111.716 336.61 108.787L335.565 110.493C340.707 113.644 346.775 115.2 353.728 115.2V113.2ZM336.61 108.787C331.794 105.836 328.078 101.962 325.444 97.1592L323.691 98.1208C326.497 103.238 330.461 107.364 335.565 110.493L336.61 108.787ZM325.444 97.1592C322.807 92.3493 321.488 87.1551 321.488 81.56H319.488C319.488 87.4849 320.889 93.0107 323.691 98.1208L325.444 97.1592ZM321.488 81.56C321.488 75.8772 322.771 70.6394 325.33 65.8298L323.565 64.8901C320.845 70.0006 319.488 75.5628 319.488 81.56H321.488ZM325.324 65.8408C327.957 61.0404 331.67 57.2095 336.48 54.3387L335.455 52.6213C330.346 55.6705 326.378 59.7596 323.571 64.8792L325.324 65.8408ZM336.48 54.3387C341.26 51.4864 346.956 50.04 353.608 50.04V48.04C346.66 48.04 340.596 49.5536 335.455 52.6213L336.48 54.3387ZM353.608 50.04C360.343 50.04 365.992 51.4879 370.603 54.3312L371.653 52.6288C366.663 49.5521 360.632 48.04 353.608 48.04V50.04ZM370.609 54.335C375.339 57.2037 378.843 60.9467 381.153 65.5672L382.942 64.6728C380.452 59.6933 376.677 55.6763 371.646 52.625L370.609 54.335ZM381.756 64.1636L366.036 68.9636L366.62 70.8764L382.34 66.0764L381.756 64.1636ZM367.191 69.4161C364.204 64.2953 359.587 61.72 353.488 61.72V63.72C358.908 63.72 362.851 65.9446 365.464 70.4239L367.191 69.4161ZM353.488 61.72C350.187 61.72 347.197 62.5694 344.546 64.2797L345.63 65.9603C347.939 64.4706 350.548 63.72 353.488 63.72V61.72ZM344.565 64.2674C341.909 65.8954 339.828 68.244 338.313 71.2728L340.102 72.1672C341.468 69.436 343.306 67.3846 345.61 65.9726L344.565 64.2674ZM338.318 71.2627C336.793 74.2291 336.048 77.6716 336.048 81.56H338.048C338.048 77.9284 338.743 74.8109 340.097 72.1773L338.318 71.2627ZM336.048 81.56C336.048 85.373 336.795 88.8097 338.313 91.8472L340.102 90.9528C338.741 88.2303 338.048 85.107 338.048 81.56H336.048ZM338.329 91.8771C339.92 94.8086 342.026 97.1724 344.647 98.9479L345.769 97.2921C343.429 95.7076 341.535 93.5914 340.087 90.9229L338.329 91.8771ZM344.666 98.9603C347.312 100.668 350.261 101.52 353.488 101.52V99.52C350.634 99.52 348.063 98.7722 345.75 97.2797L344.666 98.9603ZM353.488 101.52C356.533 101.52 359.344 100.799 361.901 99.35L360.915 97.61C358.672 98.881 356.203 99.52 353.488 99.52V101.52ZM361.91 99.3448C364.532 97.8221 366.419 95.8766 367.482 93.4861L365.654 92.6739C364.796 94.6034 363.243 96.2579 360.906 97.6152L361.91 99.3448ZM366.276 94.0364L381.996 98.8364L382.58 96.9236L366.86 92.1236L366.276 94.0364ZM381.378 97.4639C379.312 101.98 375.858 105.758 370.961 108.79L372.014 110.49C377.197 107.282 380.944 103.22 383.197 98.2961L381.378 97.4639ZM370.965 108.787C366.189 111.715 360.457 113.2 353.728 113.2V115.2C360.758 115.2 366.866 113.645 372.01 110.493L370.965 108.787ZM402.876 109.76L402.347 110.609L402.355 110.614L402.364 110.619L402.876 109.76ZM391.596 97.76L390.713 98.2298L391.596 97.76ZM391.596 65.48L390.719 64.9991L390.713 65.0101L391.596 65.48ZM402.996 53.6L403.515 54.455L403.519 54.4526L402.996 53.6ZM438.156 53.6L437.627 54.4488L437.635 54.4538L437.644 54.4587L438.156 53.6ZM449.556 65.48L448.673 65.9498L449.556 65.48ZM449.556 97.76L450.439 98.2298L450.439 98.2298L449.556 97.76ZM438.156 109.76L438.675 110.615L438.679 110.613L438.156 109.76ZM406.356 91.52L405.462 91.9672L405.467 91.9773L406.356 91.52ZM412.236 98.12L412.778 97.2797L412.778 97.2797L412.236 98.12ZM428.916 98.12L429.458 98.9603L429.468 98.9542L429.477 98.9479L428.916 98.12ZM434.796 91.4L433.912 90.9332L433.907 90.9427L434.796 91.4ZM434.796 71.96L433.902 72.4072L433.909 72.4223L433.917 72.4371L434.796 71.96ZM428.916 65.24L428.355 66.0679L428.365 66.0742L428.374 66.0803L428.916 65.24ZM412.236 65.24L412.778 66.0803L412.788 66.0742L412.797 66.0679L412.236 65.24ZM406.356 71.96L407.245 72.4174L407.251 72.4072L406.356 71.96ZM420.636 113.2C413.902 113.2 408.166 111.753 403.389 108.901L402.364 110.619C407.506 113.687 413.61 115.2 420.636 115.2V113.2ZM403.405 108.911C398.671 105.962 395.034 102.091 392.479 97.2902L390.713 98.2298C393.438 103.349 397.322 107.478 402.347 110.609L403.405 108.911ZM392.479 97.2902C389.918 92.4785 388.636 87.2804 388.636 81.68H386.636C386.636 87.5996 387.994 93.1215 390.713 98.2298L392.479 97.2902ZM388.636 81.68C388.636 75.9972 389.919 70.7594 392.479 65.9498L390.713 65.0101C387.993 70.1206 386.636 75.6828 386.636 81.68H388.636ZM392.473 65.9608C395.108 61.1563 398.784 57.3248 403.515 54.455L402.478 52.745C397.449 55.7952 393.525 59.8837 390.719 64.9992L392.473 65.9608ZM403.519 54.4526C408.296 51.5243 413.989 50.04 420.636 50.04V48.04C413.683 48.04 407.616 49.5957 402.474 52.7474L403.519 54.4526ZM420.636 50.04C427.284 50.04 432.933 51.5244 437.627 54.4488L438.685 52.7512C433.619 49.5956 427.588 48.04 420.636 48.04V50.04ZM437.644 54.4587C442.452 57.328 446.122 61.1555 448.673 65.9498L450.439 65.0101C447.711 59.8845 443.781 55.792 438.669 52.7413L437.644 54.4587ZM448.673 65.9498C451.233 70.7594 452.516 75.9972 452.516 81.68H454.516C454.516 75.6828 453.159 70.1206 450.439 65.0101L448.673 65.9498ZM452.516 81.68C452.516 87.2804 451.234 92.4785 448.673 97.2902L450.439 98.2298C453.158 93.1215 454.516 87.5996 454.516 81.68H452.516ZM448.673 97.2902C446.12 102.087 442.447 105.957 437.634 108.907L438.679 110.613C443.785 107.483 447.712 103.353 450.439 98.2298L448.673 97.2902ZM437.638 108.905C432.942 111.753 427.289 113.2 420.636 113.2V115.2C427.584 115.2 433.611 113.687 438.675 110.615L437.638 108.905ZM403.196 81.68C403.196 85.493 403.943 88.9297 405.462 91.9672L407.251 91.0728C405.889 88.3503 405.196 85.227 405.196 81.68H403.196ZM405.467 91.9773C406.981 94.9224 409.057 97.2589 411.694 98.9603L412.778 97.2797C410.455 95.7811 408.611 93.7176 407.245 91.0627L405.467 91.9773ZM411.694 98.9603C414.345 100.671 417.335 101.52 420.636 101.52V99.52C417.697 99.52 415.087 98.7694 412.778 97.2797L411.694 98.9603ZM420.636 101.52C423.862 101.52 426.812 100.668 429.458 98.9603L428.374 97.2797C426.061 98.7722 423.49 99.52 420.636 99.52V101.52ZM429.477 98.9479C432.103 97.169 434.173 94.7986 435.685 91.8573L433.907 90.9427C432.539 93.6014 430.689 95.711 428.355 97.2921L429.477 98.9479ZM435.681 91.8668C437.286 88.8251 438.076 85.3813 438.076 81.56H436.076C436.076 85.0987 435.346 88.2149 433.912 90.9332L435.681 91.8668ZM438.076 81.56C438.076 77.8153 437.284 74.4475 435.675 71.4829L433.917 72.4371C435.348 75.0725 436.076 78.1047 436.076 81.56H438.076ZM435.691 71.5128C434.178 68.4876 432.102 66.1055 429.458 64.3997L428.374 66.0803C430.69 67.5745 432.534 69.6724 433.902 72.4072L435.691 71.5128ZM429.477 64.4121C426.829 62.6182 423.873 61.72 420.636 61.72V63.72C423.479 63.72 426.043 64.5018 428.355 66.0679L429.477 64.4121ZM420.636 61.72C417.325 61.72 414.328 62.6151 411.675 64.4121L412.797 66.0679C415.104 64.5049 417.707 63.72 420.636 63.72V61.72ZM411.694 64.3997C409.05 66.1055 406.974 68.4876 405.462 71.5128L407.251 72.4072C408.618 69.6724 410.462 67.5745 412.778 66.0803L411.694 64.3997ZM405.467 71.5027C403.943 74.4662 403.196 77.8678 403.196 81.68H405.196C405.196 78.1322 405.89 75.0538 407.245 72.4173L405.467 71.5027ZM522.81 113V114H523.81V113H522.81ZM506.73 113H505.73V114H506.73V113ZM504.09 66.68L503.293 67.2844L503.293 67.2844L504.09 66.68ZM490.17 64.88L489.722 63.9856L489.716 63.9889L489.709 63.9922L490.17 64.88ZM484.29 69.56L485.027 70.2357L485.034 70.2282L485.04 70.2206L484.29 69.56ZM480.45 76.28L479.495 75.9817L479.45 76.1274V76.28H480.45ZM480.45 113V114H481.45V113H480.45ZM464.37 113H463.37V114H464.37V113ZM464.37 50.12V49.12H463.37V50.12H464.37ZM478.89 50.12H479.89V49.12H478.89V50.12ZM478.89 61.76H477.89V65.4131L479.75 62.2693L478.89 61.76ZM488.97 52.52L489.423 53.4112L489.43 53.4079L489.436 53.4046L488.97 52.52ZM513.45 51.2L512.947 52.0648L512.958 52.0709L512.969 52.0768L513.45 51.2ZM519.21 56.84L518.34 57.333L518.343 57.3394L518.347 57.3457L519.21 56.84ZM521.97 64.76L520.982 64.9201L520.985 64.933L520.987 64.9459L521.97 64.76ZM522.81 112H506.73V114H522.81V112ZM507.73 113V77.72H505.73V113H507.73ZM507.73 77.72C507.73 72.6047 506.844 68.6566 504.886 66.0756L503.293 67.2844C504.855 69.3434 505.73 72.7553 505.73 77.72H507.73ZM504.886 66.0756C502.922 63.4864 500.176 62.2 496.77 62.2V64.2C499.603 64.2 501.737 65.2336 503.293 67.2844L504.886 66.0756ZM496.77 62.2C494.431 62.2 492.079 62.8072 489.722 63.9856L490.617 65.7744C492.74 64.7128 494.788 64.2 496.77 64.2V62.2ZM489.709 63.9922C487.429 65.1745 485.373 66.8152 483.539 68.8994L485.04 70.2206C486.726 68.3048 488.59 66.8255 490.63 65.7678L489.709 63.9922ZM483.552 68.8843C481.69 70.9159 480.338 73.2858 479.495 75.9817L481.404 76.5783C482.162 74.1542 483.369 72.0441 485.027 70.2357L483.552 68.8843ZM479.45 76.28V113H481.45V76.28H479.45ZM480.45 112H464.37V114H480.45V112ZM465.37 113V50.12H463.37V113H465.37ZM464.37 51.12H478.89V49.12H464.37V51.12ZM477.89 50.12V61.76H479.89V50.12H477.89ZM479.75 62.2693C481.965 58.5263 485.178 55.5726 489.423 53.4112L488.516 51.6288C483.962 53.9474 480.454 57.1537 478.029 61.2507L479.75 62.2693ZM489.436 53.4046C493.677 51.1684 498.474 50.04 503.85 50.04V48.04C498.185 48.04 493.062 49.2316 488.503 51.6354L489.436 53.4046ZM503.85 50.04C507.655 50.04 510.666 50.74 512.947 52.0648L513.952 50.3352C511.273 48.78 507.884 48.04 503.85 48.04V50.04ZM512.969 52.0768C515.29 53.3499 517.074 55.0989 518.34 57.333L520.08 56.347C518.626 53.7811 516.569 51.7701 513.93 50.3232L512.969 52.0768ZM518.347 57.3457C519.638 59.5476 520.52 62.068 520.982 64.9201L522.957 64.5999C522.459 61.532 521.502 58.7724 520.072 56.3343L518.347 57.3457ZM520.987 64.9459C521.535 67.844 521.81 70.7818 521.81 73.76H523.81C523.81 70.6582 523.524 67.596 522.952 64.5741L520.987 64.9459ZM521.81 73.76V113H523.81V73.76H521.81ZM546.631 109.04L546.07 109.867L546.07 109.867L546.631 109.04ZM536.671 97.52L535.774 97.9613L535.777 97.9672L536.671 97.52ZM536.791 65.12L537.683 65.5731L537.686 65.5672L536.791 65.12ZM547.111 53.36L547.659 54.1967L547.659 54.1967L547.111 53.36ZM575.191 52.4L574.671 53.2542L574.678 53.2584L574.685 53.2624L575.191 52.4ZM584.311 61.16L583.474 61.7063L585.311 64.5239V61.16H584.311ZM584.311 50.12V49.12H583.311V50.12H584.311ZM598.351 50.12H599.351V49.12H598.351V50.12ZM593.791 125.96L592.969 125.392L592.963 125.4L592.957 125.409L593.791 125.96ZM581.431 136.16L581.029 135.244L581.018 135.25L581.431 136.16ZM546.031 136.28L546.473 135.383L546.466 135.379L546.031 136.28ZM534.031 126.68L533.334 125.963L532.681 126.599L533.253 127.308L534.031 126.68ZM542.791 118.16L543.568 117.53L542.879 116.68L542.094 117.443L542.791 118.16ZM551.791 125.12L551.369 126.026L551.376 126.03L551.791 125.12ZM572.671 125.72L572.287 124.797L572.271 124.803L572.256 124.811L572.671 125.72ZM579.631 119.96L578.807 119.393L578.803 119.399L578.799 119.405L579.631 119.96ZM582.271 102.08H583.271V98.3503L581.406 101.58L582.271 102.08ZM573.391 110.48L573.846 111.371L573.853 111.367L573.391 110.48ZM576.271 97.4L575.686 96.5892L575.675 96.5973L576.271 97.4ZM582.271 89.96L583.203 90.3224L583.271 90.1476V89.96H582.271ZM582.271 74.96H583.271V74.7713L583.203 74.5956L582.271 74.96ZM575.431 66.08L574.838 66.8851L574.848 66.8923L575.431 66.08ZM557.191 65.48L556.596 64.6769L556.589 64.6816L556.583 64.6864L557.191 65.48ZM551.551 72.68L552.456 73.107L552.46 73.0975L551.551 72.68ZM551.791 91.4L550.913 91.8771L550.913 91.8771L551.791 91.4ZM557.911 98.12L557.363 98.956L557.378 98.9659L557.393 98.9752L557.911 98.12ZM561.391 112.36C555.972 112.36 551.252 110.97 547.193 108.213L546.07 109.867C550.491 112.87 555.61 114.36 561.391 114.36V112.36ZM547.193 108.213C543.102 105.434 539.893 101.727 537.566 97.0728L535.777 97.9672C538.25 102.913 541.681 106.886 546.07 109.867L547.193 108.213ZM537.569 97.0787C535.24 92.3441 534.071 87.1763 534.071 81.56H532.071C532.071 87.4637 533.303 92.9359 535.774 97.9613L537.569 97.0787ZM534.071 81.56C534.071 75.6198 535.282 70.2977 537.683 65.573L535.9 64.6669C533.341 69.7023 532.071 75.3402 532.071 81.56H534.071ZM537.686 65.5672C540.091 60.7565 543.415 56.9745 547.659 54.1967L546.564 52.5233C542.008 55.5055 538.452 59.5635 535.897 64.6728L537.686 65.5672ZM547.659 54.1967C551.881 51.4333 556.767 50.04 562.351 50.04V48.04C556.416 48.04 551.142 49.5266 546.564 52.5233L547.659 54.1967ZM562.351 50.04C567.073 50.04 571.168 51.1217 574.671 53.2542L575.711 51.5458C571.855 49.1983 567.39 48.04 562.351 48.04V50.04ZM574.685 53.2624C578.228 55.3417 581.156 58.1519 583.474 61.7063L585.149 60.6137C582.667 56.8081 579.515 53.7783 575.698 51.5376L574.685 53.2624ZM585.311 61.16V50.12H583.311V61.16H585.311ZM584.311 51.12H598.351V49.12H584.311V51.12ZM597.351 50.12V110H599.351V50.12H597.351ZM597.351 110C597.351 116.072 595.875 121.185 592.969 125.392L594.614 126.528C597.788 121.935 599.351 116.408 599.351 110H597.351ZM592.957 125.409C590.111 129.716 586.147 132.996 581.029 135.244L581.834 137.076C587.276 134.684 591.552 131.164 594.626 126.511L592.957 125.409ZM581.018 135.25C575.887 137.582 570.031 138.76 563.431 138.76V140.76C570.272 140.76 576.416 139.538 581.845 137.07L581.018 135.25ZM563.431 138.76C556.659 138.76 551.02 137.618 546.473 135.383L545.59 137.177C550.483 139.582 556.444 140.76 563.431 140.76V138.76ZM546.466 135.379C541.964 133.206 538.08 130.101 534.809 126.052L533.253 127.308C536.703 131.579 540.818 134.874 545.597 137.181L546.466 135.379ZM534.729 127.397L543.489 118.877L542.094 117.443L533.334 125.963L534.729 127.397ZM542.015 118.79C544.514 121.873 547.637 124.285 551.369 126.026L552.214 124.214C548.746 122.595 545.869 120.367 543.568 117.53L542.015 118.79ZM551.376 126.03C555.188 127.77 559.209 128.64 563.431 128.64V126.64C559.493 126.64 555.755 125.83 552.207 124.21L551.376 126.03ZM563.431 128.64C566.922 128.64 570.145 127.974 573.087 126.629L572.256 124.811C569.598 126.026 566.661 126.64 563.431 126.64V128.64ZM573.056 126.643C576.122 125.366 578.596 123.316 580.463 120.515L578.799 119.405C577.147 121.884 574.981 123.674 572.287 124.797L573.056 126.643ZM580.455 120.527C582.361 117.755 583.271 114.22 583.271 110H581.271C581.271 113.94 580.422 117.045 578.807 119.393L580.455 120.527ZM583.271 110V102.08H581.271V110H583.271ZM581.406 101.58C579.425 105.008 576.608 107.677 572.93 109.593L573.853 111.367C577.855 109.283 580.958 106.352 583.137 102.58L581.406 101.58ZM572.937 109.589C569.318 111.437 565.474 112.36 561.391 112.36V114.36C565.789 114.36 569.945 113.363 573.846 111.371L572.937 109.589ZM566.791 101.52C570.524 101.52 573.894 100.412 576.868 98.2027L575.675 96.5973C573.049 98.5479 570.099 99.52 566.791 99.52V101.52ZM576.857 98.2107C579.869 96.0351 582.004 93.4079 583.203 90.3224L581.339 89.5976C580.299 92.2721 578.434 94.6049 575.686 96.5893L576.857 98.2107ZM583.271 89.96V74.96H581.271V89.96H583.271ZM583.203 74.5956C581.694 70.7413 579.296 67.6236 576.015 65.2677L574.848 66.8923C577.807 69.0163 579.968 71.8187 581.34 75.3244L583.203 74.5956ZM576.025 65.2749C572.835 62.9247 569.431 61.72 565.831 61.72V63.72C568.952 63.72 571.948 64.7553 574.838 66.8851L576.025 65.2749ZM565.831 61.72C562.351 61.72 559.259 62.7008 556.596 64.6769L557.787 66.2831C560.084 64.5792 562.752 63.72 565.831 63.72V61.72ZM556.583 64.6864C554.044 66.633 552.065 69.1663 550.643 72.2625L552.46 73.0975C553.758 70.2737 555.539 68.007 557.8 66.2736L556.583 64.6864ZM550.647 72.253C549.221 75.2738 548.511 78.5406 548.511 82.04H550.511C550.511 78.8194 551.162 75.8462 552.456 73.107L550.647 72.253ZM548.511 82.04C548.511 85.633 549.307 88.9191 550.913 91.8771L552.67 90.9229C551.236 88.2809 550.511 85.327 550.511 82.04H548.511ZM550.913 91.8771C552.508 94.8161 554.659 97.1818 557.363 98.956L558.46 97.284C556.044 95.6982 554.115 93.5839 552.67 90.9229L550.913 91.8771ZM557.393 98.9752C560.199 100.676 563.341 101.52 566.791 101.52V99.52C563.682 99.52 560.904 98.7641 558.43 97.2648L557.393 98.9752ZM620.646 111.56L620.307 112.501L620.307 112.501L620.646 111.56ZM608.046 103.76L607.171 103.277L606.803 103.943L607.347 104.475L608.046 103.76ZM613.806 93.32L614.435 92.5424L613.507 91.7922L612.931 92.8369L613.806 93.32ZM624.846 100.04L625.218 99.1115L625.218 99.1115L624.846 100.04ZM642.846 100.52L642.342 99.6562L642.334 99.6609L642.326 99.6658L642.846 100.52ZM642.246 90.8L641.891 91.735L641.906 91.7404L641.92 91.7454L642.246 90.8ZM632.526 87.56L632.23 88.5151L632.232 88.5158L632.526 87.56ZM620.886 83.12L621.324 82.221L621.324 82.221L620.886 83.12ZM613.806 77.6L612.988 78.1755L612.995 78.1854L613.003 78.1952L613.806 77.6ZM618.486 54.44L617.865 53.6565L617.865 53.6565L618.486 54.44ZM649.686 51.08L649.347 52.0209L649.356 52.0239L649.364 52.0268L649.686 51.08ZM660.606 57.8L661.45 58.3362L661.891 57.6422L661.295 57.0754L660.606 57.8ZM654.126 68L653.511 68.7888L654.38 69.4655L654.97 68.5362L654.126 68ZM629.406 62.24L628.973 61.3385L628.966 61.342L628.959 61.3456L629.406 62.24ZM629.286 72.08L628.824 72.9666L628.831 72.9706L628.839 72.9744L629.286 72.08ZM637.926 75.2L638.219 74.2438L638.206 74.24L637.926 75.2ZM650.526 79.64L650.14 80.5625L650.147 80.5655L650.526 79.64ZM658.446 85.16L657.66 85.7778L657.667 85.7864L657.673 85.7947L658.446 85.16ZM654.366 108.92L653.755 108.128L653.755 108.128L654.366 108.92ZM636.006 113.2C630.758 113.2 625.753 112.339 620.985 110.619L620.307 112.501C625.299 114.301 630.534 115.2 636.006 115.2V113.2ZM620.985 110.619C616.233 108.905 612.157 106.379 608.745 103.045L607.347 104.475C610.975 108.021 615.3 110.695 620.307 112.501L620.985 110.619ZM608.922 104.243L614.682 93.8031L612.931 92.8369L607.171 103.277L608.922 104.243ZM613.177 94.0976C616.997 97.1857 620.762 99.4835 624.475 100.968L625.218 99.1115C621.73 97.7165 618.135 95.5343 614.435 92.5424L613.177 94.0976ZM624.475 100.968C628.178 102.45 631.824 103.2 635.406 103.2V101.2C632.109 101.2 628.714 100.51 625.218 99.1115L624.475 100.968ZM635.406 103.2C638.632 103.2 641.314 102.623 643.366 101.374L642.326 99.6658C640.698 100.657 638.42 101.2 635.406 101.2V103.2ZM643.35 101.384C645.58 100.083 646.726 98.0723 646.726 95.48H644.726C644.726 97.3677 643.952 98.7171 642.342 99.6562L643.35 101.384ZM646.726 95.48C646.726 94.1478 646.39 92.9572 645.659 91.9733C644.93 90.994 643.872 90.303 642.572 89.8546L641.92 91.7454C642.94 92.097 643.622 92.586 644.054 93.1667C644.482 93.7428 644.726 94.4922 644.726 95.48H646.726ZM642.601 89.865C640.251 88.9738 636.988 87.8866 632.82 86.6042L632.232 88.5158C636.384 89.7934 639.601 90.8662 641.891 91.735L642.601 89.865ZM632.823 86.6049C628.213 85.1745 624.384 83.7119 621.324 82.221L620.448 84.019C623.628 85.5681 627.559 87.0655 632.23 88.5151L632.823 86.6049ZM621.324 82.221C618.308 80.7515 616.09 79.0035 614.61 77.0048L613.003 78.1952C614.722 80.5165 617.224 82.4485 620.448 84.019L621.324 82.221ZM614.624 77.0245C613.254 75.0774 612.526 72.4959 612.526 69.2H610.526C610.526 72.7841 611.319 75.8026 612.988 78.1755L614.624 77.0245ZM612.526 69.2C612.526 63.331 614.718 58.7051 619.108 55.2235L617.865 53.6565C612.975 57.5349 610.526 62.749 610.526 69.2H612.526ZM619.108 55.2235C623.524 51.7206 629.444 49.92 636.966 49.92V47.92C629.128 47.92 622.728 49.7994 617.865 53.6565L619.108 55.2235ZM636.966 49.92C641.337 49.92 645.462 50.6221 649.347 52.0209L650.025 50.1391C645.91 48.6579 641.555 47.92 636.966 47.92V49.92ZM649.364 52.0268C653.218 53.3369 656.734 55.4971 659.917 58.5246L661.295 57.0754C657.918 53.8629 654.155 51.5431 650.008 50.1332L649.364 52.0268ZM659.762 57.2638L653.282 67.4638L654.97 68.5362L661.45 58.3362L659.762 57.2638ZM654.741 67.2112C648.467 62.3226 642.296 59.8 636.246 59.8V61.8C641.716 61.8 647.465 64.0774 653.511 68.7888L654.741 67.2112ZM636.246 59.8C633.559 59.8 631.128 60.3044 628.973 61.3385L629.839 63.1415C631.684 62.2556 633.813 61.8 636.246 61.8V59.8ZM628.959 61.3456C627.842 61.9038 626.966 62.6939 626.378 63.7239C625.793 64.7472 625.526 65.9474 625.526 67.28H627.526C627.526 66.2126 627.739 65.3728 628.114 64.7161C628.486 64.066 629.05 63.5362 629.853 63.1344L628.959 61.3456ZM625.526 67.28C625.526 68.5377 625.785 69.6775 626.349 70.6585C626.916 71.6437 627.756 72.4097 628.824 72.9666L629.749 71.1934C628.976 70.7903 628.437 70.2763 628.083 69.6615C627.727 69.0425 627.526 68.2623 627.526 67.28H625.526ZM628.839 72.9744C630.84 73.9751 633.789 75.0349 637.646 76.16L638.206 74.24C634.384 73.1251 631.572 72.1049 629.733 71.1856L628.839 72.9744ZM637.633 76.1561C642.573 77.6699 646.74 79.139 650.14 80.5624L650.912 78.7176C647.433 77.261 643.2 75.7701 638.219 74.2439L637.633 76.1561ZM650.147 80.5655C653.559 81.9612 656.037 83.7121 657.66 85.7778L659.232 84.5422C657.336 82.1279 654.533 80.1988 650.905 78.7144L650.147 80.5655ZM657.673 85.7947C659.325 87.805 660.206 90.5958 660.206 94.28H662.206C662.206 90.2842 661.248 86.995 659.219 84.5253L657.673 85.7947ZM660.206 94.28C660.206 100.24 658.047 104.815 653.755 108.128L654.977 109.712C659.805 105.985 662.206 100.8 662.206 94.28H660.206ZM653.755 108.128C649.42 111.474 643.538 113.2 636.006 113.2V115.2C643.834 115.2 650.192 113.406 654.977 109.712L653.755 108.128Z" fill="url(#paint0_linear)"/>
</g>
<defs>
<filter id="filter0_ddd" x="0.313965" y="26.2" width="677.892" height="122.56" filterUnits="userSpaceOnUse" color-interpolation-filters="sRGB">
<feFlood flood-opacity="0" result="BackgroundImageFix"/>
<feColorMatrix in="SourceAlpha" type="matrix" values="0 0 0 0 0 0 0 0 0 0 0 0 0 0 0 0 0 0 127 0"/>
<feOffset dx="16" dy="6"/>
<feColorMatrix type="matrix" values="0 0 0 0 0.195404 0 0 0 0 0.0167708 0 0 0 0 0.575 0 0 0 1 0"/>
<feBlend mode="normal" in2="BackgroundImageFix" result="effect1_dropShadow"/>
<feColorMatrix in="SourceAlpha" type="matrix" values="0 0 0 0 0 0 0 0 0 0 0 0 0 0 0 0 0 0 127 0"/>
<feOffset dx="10" dy="5"/>
<feColorMatrix type="matrix" values="0 0 0 0 0.0125 0 0 0 0 0.0125 0 0 0 0 0.0125 0 0 0 1 0"/>
<feBlend mode="normal" in2="effect1_dropShadow" result="effect2_dropShadow"/>
<feColorMatrix in="SourceAlpha" type="matrix" values="0 0 0 0 0 0 0 0 0 0 0 0 0 0 0 0 0 0 127 0"/>
<feOffset dy="4"/>
<feGaussianBlur stdDeviation="2"/>
<feColorMatrix type="matrix" values="0 0 0 0 0 0 0 0 0 0 0 0 0 0 0 0 0 0 0.25 0"/>
<feBlend mode="normal" in2="effect2_dropShadow" result="effect3_dropShadow"/>
<feBlend mode="normal" in="SourceGraphic" in2="effect3_dropShadow" result="shape"/>
</filter>
<linearGradient id="paint0_linear" x1="532.622" y1="0" x2="532.622" y2="195.719" gradientUnits="userSpaceOnUse">
<stop stop-color="#0C09AD"/>
<stop offset="1" stop-color="white" stop-opacity="0"/>
</linearGradient>
</defs>
</svg>
